999
dxflib 3.17.0.0
  0
SECTION
  2
HEADER
  9
$ACADVER
  1
AC1015
  9
$HANDSEED
  5
FFFF
  9
$DIMADEC
 70
0
  9
$DIMASZ
 40
2.5
  9
$DIMAUNIT
 70
0
  9
$DIMAZIN
 70
2
  9
$DIMDEC
 70
4
  9
$DIMDLI
 40
5.0
  9
$DIMDSEP
 70
46
  9
$DIMEXE
 40
1.25
  9
$DIMEXO
 40
0.625
  9
$DIMGAP
 40
0.625
  9
$DIMLUNIT
 70
2
  9
$DIMSCALE
 40
1.0
  9
$DIMTSZ
 40
0.0
  9
$DIMTXT
 40
2.5
  9
$DIMZIN
 70
8
  9
$DWGCODEPAGE
  3
ANSI_1252
  9
$INSUNITS
 70
4
  9
$LTSCALE
 40
1.0
  9
$MAXACTVP
 70
64
  9
$MEASUREMENT
 70
1
  9
$MIRRTEXT
 70
0
  9
$PDMODE
 70
0
  9
$PDSIZE
 40
0.0
  0
ENDSEC
  0
SECTION
  2
TABLES
  0
TABLE
  2
VPORT
  5
8
100
AcDbSymbolTable
 70
1
  0
VPORT
  5
30
100
AcDbSymbolTableRecord
100
AcDbViewportTableRecord
  2
*Active
 70
0
 10
0.0
 20
0.0
 11
1.0
 21
1.0
 12
286.3055555555554861
 22
148.5
 13
0.0
 23
0.0
 14
10.0
 24
10.0
 15
10.0
 25
10.0
 16
0.0
 26
0.0
 36
1.0
 17
0.0
 27
0.0
 37
0.0
 40
297.0
 41
1.92798353909465
 42
50.0
 43
0.0
 44
0.0
 50
0.0
 51
0.0
 71
0
 72
100
 73
1
 74
3
 75
1
 76
1
 77
0
 78
0
281
0
 65
1
110
0.0
120
0.0
130
0.0
111
1.0
121
0.0
131
0.0
112
0.0
122
1.0
132
0.0
 79
0
146
0.0
  0
ENDTAB
  0
TABLE
  2
LTYPE
  5
5
100
AcDbSymbolTable
 70
41
  0
LTYPE
  5
16
100
AcDbSymbolTableRecord
100
AcDbLinetypeTableRecord
  2
Continuous
 70
0
  3
Solid line
 72
65
 73
0
 40
0.0
  0
LTYPE
  5
31
100
AcDbSymbolTableRecord
100
AcDbLinetypeTableRecord
  2
ACAD_ISO12W100
 70
0
  3
ISO dash double-dot __ . . __ . . __ . . __ . . 
 72
65
 73
6
 40
21.0
 49
12.0
 74
0
 49
-3.0
 74
0
 49
0.0
 74
0
 49
-3.0
 74
0
 49
0.0
 74
0
 49
-3.0
 74
0
  0
LTYPE
  5
32
100
AcDbSymbolTableRecord
100
AcDbLinetypeTableRecord
  2
ACAD_ISO13W100
 70
0
  3
ISO double-dash double-dot __ __ . . __ __ . . _
 72
65
 73
8
 40
36.0
 49
12.0
 74
0
 49
-3.0
 74
0
 49
12.0
 74
0
 49
-3.0
 74
0
 49
0.0
 74
0
 49
-3.0
 74
0
 49
0.0
 74
0
 49
-3.0
 74
0
  0
LTYPE
  5
33
100
AcDbSymbolTableRecord
100
AcDbLinetypeTableRecord
  2
ACAD_ISO11W100
 70
0
  3
ISO double-dash dot __ __ . __ __ . __ __ . __ _
 72
65
 73
6
 40
33.0
 49
12.0
 74
0
 49
-3.0
 74
0
 49
12.0
 74
0
 49
-3.0
 74
0
 49
0.0
 74
0
 49
-3.0
 74
0
  0
LTYPE
  5
34
100
AcDbSymbolTableRecord
100
AcDbLinetypeTableRecord
  2
HIDDEN
 70
0
  3
Hidden __ __ __ __ __ __ __ __ __ __ __ __ __ __
 72
65
 73
2
 40
9.5249999999999986
 49
6.3499999999999996
 74
0
 49
-3.1749999999999998
 74
0
  0
LTYPE
  5
35
100
AcDbSymbolTableRecord
100
AcDbLinetypeTableRecord
  2
ACAD_ISO07W100
 70
0
  3
ISO dot . . . . . . . . . . . . . . . . . . . . 
 72
65
 73
2
 40
3.0
 49
0.0
 74
0
 49
-3.0
 74
0
  0
LTYPE
  5
36
100
AcDbSymbolTableRecord
100
AcDbLinetypeTableRecord
  2
CENTER
 70
0
  3
Center ____ _ ____ _ ____ _ ____ _ ____ _ ____
 72
65
 73
4
 40
50.8000000000000043
 49
31.75
 74
0
 49
-6.3499999999999996
 74
0
 49
6.3499999999999996
 74
0
 49
-6.3499999999999996
 74
0
  0
LTYPE
  5
37
100
AcDbSymbolTableRecord
100
AcDbLinetypeTableRecord
  2
ACAD_ISO05W100
 70
0
  3
ISO long-dash double-dot ____ .. ____ .. ____ . 
 72
65
 73
6
 40
33.0
 49
24.0
 74
0
 49
-3.0
 74
0
 49
0.0
 74
0
 49
-3.0
 74
0
 49
0.0
 74
0
 49
-3.0
 74
0
  0
LTYPE
  5
38
100
AcDbSymbolTableRecord
100
AcDbLinetypeTableRecord
  2
CENTER2
 70
0
  3
Center (.5x) ___ _ ___ _ ___ _ ___ _ ___ _ ___
 72
65
 73
4
 40
28.5750000000000028
 49
19.0500000000000007
 74
0
 49
-3.1749999999999998
 74
0
 49
3.1749999999999998
 74
0
 49
-3.1749999999999998
 74
0
  0
LTYPE
  5
39
100
AcDbSymbolTableRecord
100
AcDbLinetypeTableRecord
  2
ACAD_ISO10W100
 70
0
  3
ISO dash dot __ . __ . __ . __ . __ . __ . __ . 
 72
65
 73
4
 40
18.0
 49
12.0
 74
0
 49
-3.0
 74
0
 49
0.0
 74
0
 49
-3.0
 74
0
  0
LTYPE
  5
3A
100
AcDbSymbolTableRecord
100
AcDbLinetypeTableRecord
  2
DIVIDEX2
 70
0
  3
Divide (2x) ________  .  .  ________  .  .  _
 72
65
 73
6
 40
63.5
 49
25.3999999999999986
 74
0
 49
-12.6999999999999993
 74
0
 49
0.0
 74
0
 49
-12.6999999999999993
 74
0
 49
0.0
 74
0
 49
-12.6999999999999993
 74
0
  0
LTYPE
  5
3B
100
AcDbSymbolTableRecord
100
AcDbLinetypeTableRecord
  2
DOT2
 70
0
  3
Dot (.5x) ........................................
 72
65
 73
2
 40
3.1749999999999998
 49
0.0
 74
0
 49
-3.1749999999999998
 74
0
  0
LTYPE
  5
3C
100
AcDbSymbolTableRecord
100
AcDbLinetypeTableRecord
  2
PHANTOM2
 70
0
  3
Phantom (.5x) ___ _ _ ___ _ _ ___ _ _ ___ _ _
 72
65
 73
6
 40
31.7500000000000036
 49
15.875
 74
0
 49
-3.1749999999999998
 74
0
 49
3.1749999999999998
 74
0
 49
-3.1749999999999998
 74
0
 49
3.1749999999999998
 74
0
 49
-3.1749999999999998
 74
0
  0
LTYPE
  5
3D
100
AcDbSymbolTableRecord
100
AcDbLinetypeTableRecord
  2
CENTERX2
 70
0
  3
Center (2x) ________  __  ________  __  _____
 72
65
 73
4
 40
101.6000000000000085
 49
63.5
 74
0
 49
-12.6999999999999993
 74
0
 49
12.6999999999999993
 74
0
 49
-12.6999999999999993
 74
0
  0
LTYPE
  5
3E
100
AcDbSymbolTableRecord
100
AcDbLinetypeTableRecord
  2
ACAD_ISO14W100
 70
0
  3
ISO dash triple-dot __ . . . __ . . . __ . . . _
 72
65
 73
8
 40
24.0
 49
12.0
 74
0
 49
-3.0
 74
0
 49
0.0
 74
0
 49
-3.0
 74
0
 49
0.0
 74
0
 49
-3.0
 74
0
 49
0.0
 74
0
 49
-3.0
 74
0
  0
LTYPE
  5
3F
100
AcDbSymbolTableRecord
100
AcDbLinetypeTableRecord
  2
HIDDENX2
 70
0
  3
Hidden (2x) ____ ____ ____ ____ ____ ____ ____ 
 72
65
 73
2
 40
19.0499999999999972
 49
12.6999999999999993
 74
0
 49
-6.3499999999999996
 74
0
  0
LTYPE
  5
40
100
AcDbSymbolTableRecord
100
AcDbLinetypeTableRecord
  2
PHANTOMX2
 70
0
  3
Phantom (2x) ____________    ____    ____   _
 72
65
 73
6
 40
127.0000000000000142
 49
63.5
 74
0
 49
-12.6999999999999993
 74
0
 49
12.6999999999999993
 74
0
 49
-12.6999999999999993
 74
0
 49
12.6999999999999993
 74
0
 49
-12.6999999999999993
 74
0
  0
LTYPE
  5
41
100
AcDbSymbolTableRecord
100
AcDbLinetypeTableRecord
  2
BORDER
 70
0
  3
Border __ __ . __ __ . __ __ . __ __ . __ __ .
 72
65
 73
6
 40
44.4499999999999957
 49
12.6999999999999993
 74
0
 49
-6.3499999999999996
 74
0
 49
12.6999999999999993
 74
0
 49
-6.3499999999999996
 74
0
 49
0.0
 74
0
 49
-6.3499999999999996
 74
0
  0
LTYPE
  5
42
100
AcDbSymbolTableRecord
100
AcDbLinetypeTableRecord
  2
DOTX2
 70
0
  3
Dot (2x) .  .  .  .  .  .  .  .  .  .  .  .  .  .
 72
65
 73
2
 40
12.6999999999999993
 49
0.0
 74
0
 49
-12.6999999999999993
 74
0
  0
LTYPE
  5
43
100
AcDbSymbolTableRecord
100
AcDbLinetypeTableRecord
  2
DIVIDE2
 70
0
  3
Divide (.5x) __..__..__..__..__..__..__..__.._
 72
65
 73
6
 40
15.875
 49
6.3499999999999996
 74
0
 49
-3.1749999999999998
 74
0
 49
0.0
 74
0
 49
-3.1749999999999998
 74
0
 49
0.0
 74
0
 49
-3.1749999999999998
 74
0
  0
LTYPE
  5
44
100
AcDbSymbolTableRecord
100
AcDbLinetypeTableRecord
  2
ACAD_ISO06W100
 70
0
  3
ISO long-dash triple-dot ____ ... ____ ... ____
 72
65
 73
8
 40
36.0
 49
24.0
 74
0
 49
-3.0
 74
0
 49
0.0
 74
0
 49
-3.0
 74
0
 49
0.0
 74
0
 49
-3.0
 74
0
 49
0.0
 74
0
 49
-3.0
 74
0
  0
LTYPE
  5
45
100
AcDbSymbolTableRecord
100
AcDbLinetypeTableRecord
  2
PHANTOM
 70
0
  3
Phantom ______  __  __  ______  __  __  ______ 
 72
65
 73
6
 40
63.5000000000000071
 49
31.75
 74
0
 49
-6.3499999999999996
 74
0
 49
6.3499999999999996
 74
0
 49
-6.3499999999999996
 74
0
 49
6.3499999999999996
 74
0
 49
-6.3499999999999996
 74
0
  0
LTYPE
  5
46
100
AcDbSymbolTableRecord
100
AcDbLinetypeTableRecord
  2
ACAD_ISO02W100
 70
0
  3
ISO dash __ __ __ __ __ __ __ __ __ __ __ __ __
 72
65
 73
2
 40
15.0
 49
12.0
 74
0
 49
-3.0
 74
0
  0
LTYPE
  5
47
100
AcDbSymbolTableRecord
100
AcDbLinetypeTableRecord
  2
DASHED
 70
0
  3
Dashed __ __ __ __ __ __ __ __ __ __ __ __ __ _
 72
65
 73
2
 40
19.0499999999999972
 49
12.6999999999999993
 74
0
 49
-6.3499999999999996
 74
0
  0
LTYPE
  5
48
100
AcDbSymbolTableRecord
100
AcDbLinetypeTableRecord
  2
DASHEDX2
 70
0
  3
Dashed (2x) ____  ____  ____  ____  ____  ___
 72
65
 73
2
 40
38.0999999999999943
 49
25.3999999999999986
 74
0
 49
-12.6999999999999993
 74
0
  0
LTYPE
  5
49
100
AcDbSymbolTableRecord
100
AcDbLinetypeTableRecord
  2
ACAD_ISO04W100
 70
0
  3
ISO long-dash dot ____ . ____ . ____ . ____ . _
 72
65
 73
4
 40
30.0
 49
24.0
 74
0
 49
-3.0
 74
0
 49
0.0
 74
0
 49
-3.0
 74
0
  0
LTYPE
  5
4A
100
AcDbSymbolTableRecord
100
AcDbLinetypeTableRecord
  2
BORDERX2
 70
0
  3
Border (2x) ____  ____  .  ____  ____  .  ___
 72
65
 73
6
 40
88.8999999999999915
 49
25.3999999999999986
 74
0
 49
-12.6999999999999993
 74
0
 49
25.3999999999999986
 74
0
 49
-12.6999999999999993
 74
0
 49
0.0
 74
0
 49
-12.6999999999999993
 74
0
  0
LTYPE
  5
4B
100
AcDbSymbolTableRecord
100
AcDbLinetypeTableRecord
  2
ACAD_ISO08W100
 70
0
  3
ISO long-dash short-dash ____ __ ____ __ ____ _
 72
65
 73
4
 40
36.0
 49
24.0
 74
0
 49
-3.0
 74
0
 49
6.0
 74
0
 49
-3.0
 74
0
  0
LTYPE
  5
14
100
AcDbSymbolTableRecord
100
AcDbLinetypeTableRecord
  2
BYBLOCK
 70
0
  3

 72
65
 73
0
 40
0.0
  0
LTYPE
  5
4C
100
AcDbSymbolTableRecord
100
AcDbLinetypeTableRecord
  2
DASHDOT
 70
0
  3
Dash dot __ . __ . __ . __ . __ . __ . __ . __
 72
65
 73
4
 40
25.3999999999999986
 49
12.6999999999999993
 74
0
 49
-6.3499999999999996
 74
0
 49
0.0
 74
0
 49
-6.3499999999999996
 74
0
  0
LTYPE
  5
4D
100
AcDbSymbolTableRecord
100
AcDbLinetypeTableRecord
  2
DOT
 70
0
  3
Dot . . . . . . . . . . . . . . . . . . . . . . . .
 72
65
 73
2
 40
6.3499999999999996
 49
0.0
 74
0
 49
-6.3499999999999996
 74
0
  0
LTYPE
  5
15
100
AcDbSymbolTableRecord
100
AcDbLinetypeTableRecord
  2
BYLAYER
 70
0
  3

 72
65
 73
0
 40
0.0
  0
LTYPE
  5
4E
100
AcDbSymbolTableRecord
100
AcDbLinetypeTableRecord
  2
DASHDOTX2
 70
0
  3
Dash dot (2x) ____  .  ____  .  ____  .  ___
 72
65
 73
4
 40
50.7999999999999972
 49
25.3999999999999986
 74
0
 49
-12.6999999999999993
 74
0
 49
0.0
 74
0
 49
-12.6999999999999993
 74
0
  0
LTYPE
  5
4F
100
AcDbSymbolTableRecord
100
AcDbLinetypeTableRecord
  2
DASHED2
 70
0
  3
Dashed (.5x) _ _ _ _ _ _ _ _ _ _ _ _ _ _ _ _ _ 
 72
65
 73
2
 40
9.5249999999999986
 49
6.3499999999999996
 74
0
 49
-3.1749999999999998
 74
0
  0
LTYPE
  5
50
100
AcDbSymbolTableRecord
100
AcDbLinetypeTableRecord
  2
ACAD_ISO03W100
 70
0
  3
ISO dash space __    __    __    __    __    __
 72
65
 73
2
 40
30.0
 49
12.0
 74
0
 49
-18.0
 74
0
  0
LTYPE
  5
51
100
AcDbSymbolTableRecord
100
AcDbLinetypeTableRecord
  2
HIDDEN2
 70
0
  3
Hidden (.5x) _ _ _ _ _ _ _ _ _ _ _ _ _ _ _ _ _ 
 72
65
 73
2
 40
4.7624999999999993
 49
3.1749999999999998
 74
0
 49
-1.5874999999999999
 74
0
  0
LTYPE
  5
52
100
AcDbSymbolTableRecord
100
AcDbLinetypeTableRecord
  2
ACAD_ISO15W100
 70
0
  3
ISO double-dash triple-dot __ __ . . . __ __ . .
 72
65
 73
10
 40
39.0
 49
12.0
 74
0
 49
-3.0
 74
0
 49
12.0
 74
0
 49
-3.0
 74
0
 49
0.0
 74
0
 49
-3.0
 74
0
 49
0.0
 74
0
 49
-3.0
 74
0
 49
0.0
 74
0
 49
-3.0
 74
0
  0
LTYPE
  5
53
100
AcDbSymbolTableRecord
100
AcDbLinetypeTableRecord
  2
BORDER2
 70
0
  3
Border (.5x) __.__.__.__.__.__.__.__.__.__.__.
 72
65
 73
6
 40
22.2249999999999979
 49
6.3499999999999996
 74
0
 49
-3.1749999999999998
 74
0
 49
6.3499999999999996
 74
0
 49
-3.1749999999999998
 74
0
 49
0.0
 74
0
 49
-3.1749999999999998
 74
0
  0
LTYPE
  5
54
100
AcDbSymbolTableRecord
100
AcDbLinetypeTableRecord
  2
ACAD_ISO09W100
 70
0
  3
ISO long-dash double-short-dash ____ __ __ ____
 72
65
 73
6
 40
45.0
 49
24.0
 74
0
 49
-3.0
 74
0
 49
6.0
 74
0
 49
-3.0
 74
0
 49
6.0
 74
0
 49
-3.0
 74
0
  0
LTYPE
  5
55
100
AcDbSymbolTableRecord
100
AcDbLinetypeTableRecord
  2
DIVIDE
 70
0
  3
Divide ____ . . ____ . . ____ . . ____ . . ____
 72
65
 73
6
 40
31.75
 49
12.6999999999999993
 74
0
 49
-6.3499999999999996
 74
0
 49
0.0
 74
0
 49
-6.3499999999999996
 74
0
 49
0.0
 74
0
 49
-6.3499999999999996
 74
0
  0
LTYPE
  5
56
100
AcDbSymbolTableRecord
100
AcDbLinetypeTableRecord
  2
DASHDOT2
 70
0
  3
Dash dot (.5x) _._._._._._._._._._._._._._._.
 72
65
 73
4
 40
12.6999999999999993
 49
6.3499999999999996
 74
0
 49
-3.1749999999999998
 74
0
 49
0.0
 74
0
 49
-3.1749999999999998
 74
0
  0
ENDTAB
  0
TABLE
  2
LAYER
  5
2
100
AcDbSymbolTable
 70
1
  0
LAYER
  5
10
100
AcDbSymbolTableRecord
100
AcDbLayerTableRecord
  2
0
 70
0
 62
7
420
0
  6
Continuous
370
25
390
F
  0
ENDTAB
  0
TABLE
  2
STYLE
  5
3
100
AcDbSymbolTable
 70
1
  0
STYLE
  5
57
100
AcDbSymbolTableRecord
100
AcDbTextStyleTableRecord
  2
Standard
 70
0
 40
0.0
 41
1.0
 50
0.0
 71
0
 42
2.5
  3

  4

1001
ACAD
1000
txt
1071
0
  0
ENDTAB
  0
TABLE
  2
VIEW
  5
6
100
AcDbSymbolTable
 70
0
  0
ENDTAB
  0
TABLE
  2
UCS
  5
7
100
AcDbSymbolTable
 70
0
  0
ENDTAB
  0
TABLE
  2
APPID
  5
9
100
AcDbSymbolTable
 70
1
  0
APPID
  5
12
100
AcDbSymbolTableRecord
100
AcDbRegAppTableRecord
  2
ACAD
 70
0
  0
APPID
  5
58
100
AcDbSymbolTableRecord
100
AcDbRegAppTableRecord
  2
QCAD
 70
0
  0
ENDTAB
  0
TABLE
  2
DIMSTYLE
  5
A
100
AcDbSymbolTable
 70
1
100
AcDbDimStyleTable
 71
0
  0
DIMSTYLE
105
27
100
AcDbSymbolTableRecord
100
AcDbDimStyleTableRecord
  2
Standard
 41
2.5
 42
0.625
 43
3.75
 44
1.25
 70
0
 73
0
 74
0
 77
1
 78
8
140
2.5
141
2.5
143
0.03937007874016
147
0.625
171
3
172
1
271
2
272
2
274
3
278
44
283
0
284
8
340
57
  0
ENDTAB
  0
TABLE
  2
BLOCK_RECORD
  5
1
100
AcDbSymbolTable
 70
1
  0
BLOCK_RECORD
  5
1F
100
AcDbSymbolTableRecord
100
AcDbBlockTableRecord
  2
*Model_Space
340
22
  0
BLOCK_RECORD
  5
1B
100
AcDbSymbolTableRecord
100
AcDbBlockTableRecord
  2
*Paper_Space
340
1E
  0
BLOCK_RECORD
  5
23
100
AcDbSymbolTableRecord
100
AcDbBlockTableRecord
  2
*Paper_Space0
340
26
  0
ENDTAB
  0
ENDSEC
  0
SECTION
  2
BLOCKS
  0
BLOCK
  5
20
100
AcDbEntity
  8
0
100
AcDbBlockBegin
  2
*Model_Space
 70
0
 10
0.0
 20
0.0
 30
0.0
  3
*Model_Space
  1

  0
ENDBLK
  5
21
100
AcDbEntity
  8
0
100
AcDbBlockEnd
  0
BLOCK
  5
1C
100
AcDbEntity
 67
1
  8
0
100
AcDbBlockBegin
  2
*Paper_Space
 70
0
 10
0.0
 20
0.0
 30
0.0
  3
*Paper_Space
  1

  0
ENDBLK
  5
1D
100
AcDbEntity
 67
1
  8
0
100
AcDbBlockEnd
  0
BLOCK
  5
24
100
AcDbEntity
  8
0
100
AcDbBlockBegin
  2
*Paper_Space0
 70
0
 10
0.0
 20
0.0
 30
0.0
  3
*Paper_Space0
  1

  0
ENDBLK
  5
25
100
AcDbEntity
  8
0
100
AcDbBlockEnd
  0
ENDSEC
  0
SECTION
  2
ENTITIES
  0
LWPOLYLINE
  5
59
100
AcDbEntity
  8
0
 62
256
370
-1
 48
1.0
  6
BYLAYER
100
AcDbPolyline
 90
2
 70
128
 10
12.0249800000000278
 20
84.6748699999999985
 10
25.0249800000000278
 20
84.6748699999999985
  0
ARC
  5
5A
100
AcDbEntity
  8
0
 62
256
370
-1
 48
1.0
  6
BYLAYER
100
AcDbCircle
 10
25.0260751413959639
 20
84.1759651413959347
 30
0.0
 40
0.4989060605699379
100
AcDbArc
 50
359.8742307714701951
 51
90.1257692285314107
  0
LWPOLYLINE
  5
5B
100
AcDbEntity
  8
0
 62
256
370
-1
 48
1.0
  6
BYLAYER
100
AcDbPolyline
 90
2
 70
128
 10
25.5249800000000278
 20
84.1748699999999985
 10
25.5249800000000278
 20
71.1748699999999985
  0
ARC
  5
5C
100
AcDbEntity
  8
0
 62
256
370
-1
 48
1.0
  6
BYLAYER
100
AcDbCircle
 10
25.0260751413959781
 20
71.1737748586040482
 30
0.0
 40
0.4989060605699343
100
AcDbArc
 50
269.8742307714681488
 51
0.1257692285297907
  0
LWPOLYLINE
  5
5D
100
AcDbEntity
  8
0
 62
256
370
-1
 48
1.0
  6
BYLAYER
100
AcDbPolyline
 90
2
 70
128
 10
25.0249800000000278
 20
70.6748699999999985
 10
12.0249800000000278
 20
70.6748699999999985
  0
ARC
  5
5E
100
AcDbEntity
  8
0
 62
256
370
-1
 48
1.0
  6
BYLAYER
100
AcDbCircle
 10
12.0238848586040916
 20
71.1737748586040624
 30
0.0
 40
0.4989060605699414
100
AcDbArc
 50
179.8742307714702235
 51
270.1257692285309986
  0
LWPOLYLINE
  5
5F
100
AcDbEntity
  8
0
 62
256
370
-1
 48
1.0
  6
BYLAYER
100
AcDbPolyline
 90
2
 70
128
 10
11.5249800000000278
 20
71.1748699999999985
 10
11.5249800000000278
 20
84.1748699999999985
  0
ARC
  5
60
100
AcDbEntity
  8
0
 62
256
370
-1
 48
1.0
  6
BYLAYER
100
AcDbCircle
 10
12.0238848586040916
 20
84.1759651413959489
 30
0.0
 40
0.4989060605699361
100
AcDbArc
 50
89.8742307714688025
 51
180.1257692285297765
  0
LWPOLYLINE
  5
61
100
AcDbEntity
  8
0
 62
256
370
-1
 48
1.0
  6
BYLAYER
100
AcDbPolyline
 90
2
 70
128
 10
50.1249000000000251
 20
84.6748699999999985
 10
63.1249000000000251
 20
84.6748699999999985
  0
ARC
  5
62
100
AcDbEntity
  8
0
 62
256
370
-1
 48
1.0
  6
BYLAYER
100
AcDbCircle
 10
63.1259951413959755
 20
84.1759651413959347
 30
0.0
 40
0.4989060605699343
100
AcDbArc
 50
359.8742307714701951
 51
90.1257692285318086
  0
LWPOLYLINE
  5
63
100
AcDbEntity
  8
0
 62
256
370
-1
 48
1.0
  6
BYLAYER
100
AcDbPolyline
 90
2
 70
128
 10
63.6249000000000251
 20
84.1748699999999985
 10
63.6249000000000251
 20
71.1748699999999985
  0
ARC
  5
64
100
AcDbEntity
  8
0
 62
256
370
-1
 48
1.0
  6
BYLAYER
100
AcDbCircle
 10
63.1259951413959755
 20
71.1737748586040482
 30
0.0
 40
0.4989060605699343
100
AcDbArc
 50
269.8742307714681488
 51
0.1257692285297907
  0
LWPOLYLINE
  5
65
100
AcDbEntity
  8
0
 62
256
370
-1
 48
1.0
  6
BYLAYER
100
AcDbPolyline
 90
2
 70
128
 10
63.1249000000000251
 20
70.6748699999999985
 10
50.1249000000000251
 20
70.6748699999999985
  0
ARC
  5
66
100
AcDbEntity
  8
0
 62
256
370
-1
 48
1.0
  6
BYLAYER
100
AcDbCircle
 10
50.1238048586040748
 20
71.1737748586040482
 30
0.0
 40
0.4989060605699343
100
AcDbArc
 50
179.8742307714702235
 51
270.1257692285318512
  0
LWPOLYLINE
  5
67
100
AcDbEntity
  8
0
 62
256
370
-1
 48
1.0
  6
BYLAYER
100
AcDbPolyline
 90
2
 70
128
 10
49.6249000000000251
 20
71.1748699999999985
 10
49.6249000000000251
 20
84.1748699999999985
  0
ARC
  5
68
100
AcDbEntity
  8
0
 62
256
370
-1
 48
1.0
  6
BYLAYER
100
AcDbCircle
 10
50.1238048586040748
 20
84.1759651413959489
 30
0.0
 40
0.4989060605699343
100
AcDbArc
 50
89.8742307714681914
 51
180.1257692285297765
  0
LWPOLYLINE
  5
69
100
AcDbEntity
  8
0
 62
256
370
-1
 48
1.0
  6
BYLAYER
100
AcDbPolyline
 90
2
 70
128
 10
69.1748799999999164
 20
84.6748699999999985
 10
82.1748799999999164
 20
84.6748699999999985
  0
ARC
  5
6A
100
AcDbEntity
  8
0
 62
256
370
-1
 48
1.0
  6
BYLAYER
100
AcDbCircle
 10
82.1759751413958668
 20
84.1759651413959347
 30
0.0
 40
0.4989060605699272
100
AcDbArc
 50
359.8742307714701951
 51
90.1257692285326328
  0
LWPOLYLINE
  5
6B
100
AcDbEntity
  8
0
 62
256
370
-1
 48
1.0
  6
BYLAYER
100
AcDbPolyline
 90
2
 70
128
 10
82.6748799999999164
 20
84.1748699999999985
 10
82.6748799999999164
 20
71.1748699999999985
  0
ARC
  5
6C
100
AcDbEntity
  8
0
 62
256
370
-1
 48
1.0
  6
BYLAYER
100
AcDbCircle
 10
82.1759751413958668
 20
71.1737748586040482
 30
0.0
 40
0.4989060605699343
100
AcDbArc
 50
269.874230771467353
 51
0.1257692285297907
  0
LWPOLYLINE
  5
6D
100
AcDbEntity
  8
0
 62
256
370
-1
 48
1.0
  6
BYLAYER
100
AcDbPolyline
 90
2
 70
128
 10
82.1748799999999164
 20
70.6748699999999985
 10
69.1748799999999164
 20
70.6748699999999985
  0
ARC
  5
6E
100
AcDbEntity
  8
0
 62
256
370
-1
 48
1.0
  6
BYLAYER
100
AcDbCircle
 10
69.1737848586039945
 20
71.1737748586040624
 30
0.0
 40
0.4989060605699556
100
AcDbArc
 50
179.8742307714702235
 51
270.1257692285293501
  0
LWPOLYLINE
  5
6F
100
AcDbEntity
  8
0
 62
256
370
-1
 48
1.0
  6
BYLAYER
100
AcDbPolyline
 90
2
 70
128
 10
68.6748799999999164
 20
71.1748699999999985
 10
68.6748799999999164
 20
84.1748699999999985
  0
ARC
  5
70
100
AcDbEntity
  8
0
 62
256
370
-1
 48
1.0
  6
BYLAYER
100
AcDbCircle
 10
69.1737848586039803
 20
84.1759651413959347
 30
0.0
 40
0.4989060605699379
100
AcDbArc
 50
89.8742307714690014
 51
180.1257692285297765
  0
LWPOLYLINE
  5
71
100
AcDbEntity
  8
0
 62
256
370
-1
 48
1.0
  6
BYLAYER
100
AcDbPolyline
 90
2
 70
128
 10
88.2248700000000099
 20
84.6748699999999985
 10
101.2248700000000099
 20
84.6748699999999985
  0
ARC
  5
72
100
AcDbEntity
  8
0
 62
256
370
-1
 48
1.0
  6
BYLAYER
100
AcDbCircle
 10
101.2259651413959318
 20
84.1759651413959205
 30
0.0
 40
0.4989060605699556
100
AcDbArc
 50
359.8742307714701951
 51
90.1257692285293786
  0
LWPOLYLINE
  5
73
100
AcDbEntity
  8
0
 62
256
370
-1
 48
1.0
  6
BYLAYER
100
AcDbPolyline
 90
2
 70
128
 10
101.7248700000000099
 20
84.1748699999999985
 10
101.7248700000000099
 20
71.1748699999999985
  0
ARC
  5
74
100
AcDbEntity
  8
0
 62
256
370
-1
 48
1.0
  6
BYLAYER
100
AcDbCircle
 10
101.2259651413959602
 20
71.1737748586040482
 30
0.0
 40
0.4989060605699343
100
AcDbArc
 50
269.874230771467353
 51
0.1257692285297907
  0
LWPOLYLINE
  5
75
100
AcDbEntity
  8
0
 62
256
370
-1
 48
1.0
  6
BYLAYER
100
AcDbPolyline
 90
2
 70
128
 10
101.2248700000000099
 20
70.6748699999999985
 10
88.2248700000000099
 20
70.6748699999999985
  0
ARC
  5
76
100
AcDbEntity
  8
0
 62
256
370
-1
 48
1.0
  6
BYLAYER
100
AcDbCircle
 10
88.223774858604088
 20
71.1737748586040624
 30
0.0
 40
0.4989060605699556
100
AcDbArc
 50
179.8742307714702235
 51
270.1257692285293501
  0
LWPOLYLINE
  5
77
100
AcDbEntity
  8
0
 62
256
370
-1
 48
1.0
  6
BYLAYER
100
AcDbPolyline
 90
2
 70
128
 10
87.7248700000000099
 20
71.1748699999999985
 10
87.7248700000000099
 20
84.1748699999999985
  0
ARC
  5
78
100
AcDbEntity
  8
0
 62
256
370
-1
 48
1.0
  6
BYLAYER
100
AcDbCircle
 10
88.223774858604088
 20
84.1759651413959347
 30
0.0
 40
0.498906060569945
100
AcDbArc
 50
89.8742307714706357
 51
180.1257692285297765
  0
LWPOLYLINE
  5
79
100
AcDbEntity
  8
0
 62
256
370
-1
 48
1.0
  6
BYLAYER
100
AcDbPolyline
 90
2
 70
128
 10
107.2747699999999895
 20
84.6748699999999985
 10
120.2747699999999895
 20
84.6748699999999985
  0
ARC
  5
7A
100
AcDbEntity
  8
0
 62
256
370
-1
 48
1.0
  6
BYLAYER
100
AcDbCircle
 10
120.2758651413958972
 20
84.175965141395892
 30
0.0
 40
0.4989060605699697
100
AcDbArc
 50
359.8742307714759932
 51
90.1257692285277301
  0
LWPOLYLINE
  5
7B
100
AcDbEntity
  8
0
 62
256
370
-1
 48
1.0
  6
BYLAYER
100
AcDbPolyline
 90
2
 70
128
 10
120.7747699999999895
 20
84.1748699999999985
 10
120.7747699999999895
 20
71.1748699999999985
  0
ARC
  5
7C
100
AcDbEntity
  8
0
 62
256
370
-1
 48
1.0
  6
BYLAYER
100
AcDbCircle
 10
120.275865141395883
 20
71.173774858604105
 30
0.0
 40
0.498906060569991
100
AcDbArc
 50
269.8742307714738899
 51
0.125769228523995
  0
LWPOLYLINE
  5
7D
100
AcDbEntity
  8
0
 62
256
370
-1
 48
1.0
  6
BYLAYER
100
AcDbPolyline
 90
2
 70
128
 10
120.2747699999999895
 20
70.6748699999999985
 10
107.2747699999999895
 20
70.6748699999999985
  0
ARC
  5
7E
100
AcDbEntity
  8
0
 62
256
370
-1
 48
1.0
  6
BYLAYER
100
AcDbCircle
 10
107.273674858604096
 20
71.1737748586040908
 30
0.0
 40
0.4989060605699839
100
AcDbArc
 50
179.8742307714760216
 51
270.1257692285261101
  0
LWPOLYLINE
  5
7F
100
AcDbEntity
  8
0
 62
256
370
-1
 48
1.0
  6
BYLAYER
100
AcDbPolyline
 90
2
 70
128
 10
106.7747699999999895
 20
71.1748699999999985
 10
106.7747699999999895
 20
84.1748699999999985
  0
ARC
  5
80
100
AcDbEntity
  8
0
 62
256
370
-1
 48
1.0
  6
BYLAYER
100
AcDbCircle
 10
107.273674858604096
 20
84.175965141395892
 30
0.0
 40
0.498906060569991
100
AcDbArc
 50
89.8742307714739184
 51
180.1257692285239784
  0
LWPOLYLINE
  5
81
100
AcDbEntity
  8
0
 62
256
370
-1
 48
1.0
  6
BYLAYER
100
AcDbPolyline
 90
2
 70
128
 10
126.3249999999999886
 20
84.6748699999999985
 10
139.3249999999999886
 20
84.6748699999999985
  0
ARC
  5
82
100
AcDbEntity
  8
0
 62
256
370
-1
 48
1.0
  6
BYLAYER
100
AcDbCircle
 10
139.326095141395939
 20
84.1759651413959489
 30
0.0
 40
0.4989060605699273
100
AcDbArc
 50
359.8742307714672961
 51
90.125769228532647
  0
LWPOLYLINE
  5
83
100
AcDbEntity
  8
0
 62
256
370
-1
 48
1.0
  6
BYLAYER
100
AcDbPolyline
 90
2
 70
128
 10
139.8249999999999886
 20
84.1748699999999985
 10
139.8249999999999886
 20
71.1748699999999985
  0
ARC
  5
84
100
AcDbEntity
  8
0
 62
256
370
-1
 48
1.0
  6
BYLAYER
100
AcDbCircle
 10
139.326095141395939
 20
71.1737748586040624
 30
0.0
 40
0.4989060605699415
100
AcDbArc
 50
269.874230771467353
 51
0.1257692285297907
  0
LWPOLYLINE
  5
85
100
AcDbEntity
  8
0
 62
256
370
-1
 48
1.0
  6
BYLAYER
100
AcDbPolyline
 90
2
 70
128
 10
139.3249999999999886
 20
70.6748699999999985
 10
126.3249999999999886
 20
70.6748699999999985
  0
ARC
  5
86
100
AcDbEntity
  8
0
 62
256
370
-1
 48
1.0
  6
BYLAYER
100
AcDbCircle
 10
126.3239048586040951
 20
71.173774858604105
 30
0.0
 40
0.4989060605699839
100
AcDbArc
 50
179.8742307714760216
 51
270.1257692285261101
  0
LWPOLYLINE
  5
87
100
AcDbEntity
  8
0
 62
256
370
-1
 48
1.0
  6
BYLAYER
100
AcDbPolyline
 90
2
 70
128
 10
125.8249999999999886
 20
71.1748699999999985
 10
125.8249999999999886
 20
84.1748699999999985
  0
ARC
  5
88
100
AcDbEntity
  8
0
 62
256
370
-1
 48
1.0
  6
BYLAYER
100
AcDbCircle
 10
126.3239048586041093
 20
84.175965141395892
 30
0.0
 40
0.4989060605699822
100
AcDbArc
 50
89.8742307714755384
 51
180.1257692285239784
  0
LWPOLYLINE
  5
89
100
AcDbEntity
  8
0
 62
256
370
-1
 48
1.0
  6
BYLAYER
100
AcDbPolyline
 90
2
 70
128
 10
145.3746799999999553
 20
84.6748699999999985
 10
158.3746799999999553
 20
84.6748699999999985
  0
ARC
  5
8A
100
AcDbEntity
  8
0
 62
256
370
-1
 48
1.0
  6
BYLAYER
100
AcDbCircle
 10
158.375775141395934
 20
84.1759651413959489
 30
0.0
 40
0.4989060605698988
100
AcDbArc
 50
359.8742307714672961
 51
90.1257692285359013
  0
LWPOLYLINE
  5
8B
100
AcDbEntity
  8
0
 62
256
370
-1
 48
1.0
  6
BYLAYER
100
AcDbPolyline
 90
2
 70
128
 10
158.8746799999999553
 20
84.1748699999999985
 10
158.8746799999999553
 20
71.1748699999999985
  0
ARC
  5
8C
100
AcDbEntity
  8
0
 62
256
370
-1
 48
1.0
  6
BYLAYER
100
AcDbCircle
 10
158.3757751413958772
 20
71.1737748586040482
 30
0.0
 40
0.4989060605699343
100
AcDbArc
 50
269.874230771470593
 51
0.1257692285297907
  0
LWPOLYLINE
  5
8D
100
AcDbEntity
  8
0
 62
256
370
-1
 48
1.0
  6
BYLAYER
100
AcDbPolyline
 90
2
 70
128
 10
158.3746799999999553
 20
70.6748699999999985
 10
145.3746799999999553
 20
70.6748699999999985
  0
ARC
  5
8E
100
AcDbEntity
  8
0
 62
256
370
-1
 48
1.0
  6
BYLAYER
100
AcDbCircle
 10
145.3735848586040049
 20
71.1737748586040624
 30
0.0
 40
0.4989060605699272
100
AcDbArc
 50
179.8742307714702235
 51
270.125769228532647
  0
LWPOLYLINE
  5
8F
100
AcDbEntity
  8
0
 62
256
370
-1
 48
1.0
  6
BYLAYER
100
AcDbPolyline
 90
2
 70
128
 10
144.8746799999999553
 20
71.1748699999999985
 10
144.8746799999999553
 20
84.1748699999999985
  0
ARC
  5
90
100
AcDbEntity
  8
0
 62
256
370
-1
 48
1.0
  6
BYLAYER
100
AcDbCircle
 10
145.3735848586040049
 20
84.1759651413959347
 30
0.0
 40
0.4989060605699397
100
AcDbArc
 50
89.8742307714673672
 51
180.1257692285297765
  0
LWPOLYLINE
  5
91
100
AcDbEntity
  8
0
 62
256
370
-1
 48
1.0
  6
BYLAYER
100
AcDbPolyline
 90
2
 70
128
 10
164.4246699999999919
 20
84.6748699999999985
 10
177.4246699999999919
 20
84.6748699999999985
  0
ARC
  5
92
100
AcDbEntity
  8
0
 62
256
370
-1
 48
1.0
  6
BYLAYER
100
AcDbCircle
 10
177.4257651413959138
 20
84.1759651413959347
 30
0.0
 40
0.4989060605699556
100
AcDbArc
 50
359.8742307714701951
 51
90.1257692285293786
  0
LWPOLYLINE
  5
93
100
AcDbEntity
  8
0
 62
256
370
-1
 48
1.0
  6
BYLAYER
100
AcDbPolyline
 90
2
 70
128
 10
177.9246699999999919
 20
84.1748699999999985
 10
177.9246699999999919
 20
71.1748699999999985
  0
ARC
  5
94
100
AcDbEntity
  8
0
 62
256
370
-1
 48
1.0
  6
BYLAYER
100
AcDbCircle
 10
177.4257651413959422
 20
71.1737748586040482
 30
0.0
 40
0.4989060605699273
100
AcDbArc
 50
269.874230771467353
 51
0.1257692285326887
  0
LWPOLYLINE
  5
95
100
AcDbEntity
  8
0
 62
256
370
-1
 48
1.0
  6
BYLAYER
100
AcDbPolyline
 90
2
 70
128
 10
177.4246699999999919
 20
70.6748699999999985
 10
164.4246699999999919
 20
70.6748699999999985
  0
ARC
  5
96
100
AcDbEntity
  8
0
 62
256
370
-1
 48
1.0
  6
BYLAYER
100
AcDbCircle
 10
164.42357485860407
 20
71.1737748586040766
 30
0.0
 40
0.4989060605699556
100
AcDbArc
 50
179.8742307714702235
 51
270.1257692285293501
  0
LWPOLYLINE
  5
97
100
AcDbEntity
  8
0
 62
256
370
-1
 48
1.0
  6
BYLAYER
100
AcDbPolyline
 90
2
 70
128
 10
163.9246699999999919
 20
71.1748699999999985
 10
163.9246699999999919
 20
84.1748699999999985
  0
ARC
  5
98
100
AcDbEntity
  8
0
 62
256
370
-1
 48
1.0
  6
BYLAYER
100
AcDbCircle
 10
164.42357485860407
 20
84.1759651413959205
 30
0.0
 40
0.4989060605699503
100
AcDbArc
 50
89.8742307714706357
 51
180.1257692285297765
  0
LWPOLYLINE
  5
99
100
AcDbEntity
  8
0
 62
256
370
-1
 48
1.0
  6
BYLAYER
100
AcDbPolyline
 90
2
 70
128
 10
183.4746299999999906
 20
84.6748699999999985
 10
196.4746299999999906
 20
84.6748699999999985
  0
ARC
  5
9A
100
AcDbEntity
  8
0
 62
256
370
-1
 48
1.0
  6
BYLAYER
100
AcDbCircle
 10
196.4757251413959693
 20
84.1759651413959489
 30
0.0
 40
0.4989060605698988
100
AcDbArc
 50
359.8742307714672961
 51
90.1257692285359013
  0
LWPOLYLINE
  5
9B
100
AcDbEntity
  8
0
 62
256
370
-1
 48
1.0
  6
BYLAYER
100
AcDbPolyline
 90
2
 70
128
 10
196.9746299999999906
 20
84.1748699999999985
 10
196.9746299999999906
 20
71.1748699999999985
  0
ARC
  5
9C
100
AcDbEntity
  8
0
 62
256
370
-1
 48
1.0
  6
BYLAYER
100
AcDbCircle
 10
196.4757251413959693
 20
71.1737748586040482
 30
0.0
 40
0.4989060605699273
100
AcDbArc
 50
269.874230771464056
 51
0.1257692285326887
  0
LWPOLYLINE
  5
9D
100
AcDbEntity
  8
0
 62
256
370
-1
 48
1.0
  6
BYLAYER
100
AcDbPolyline
 90
2
 70
128
 10
196.4746299999999906
 20
70.6748699999999985
 10
183.4746299999999906
 20
70.6748699999999985
  0
ARC
  5
9E
100
AcDbEntity
  8
0
 62
256
370
-1
 48
1.0
  6
BYLAYER
100
AcDbCircle
 10
183.4735348586040686
 20
71.1737748586040482
 30
0.0
 40
0.4989060605699556
100
AcDbArc
 50
179.8742307714702235
 51
270.1257692285293501
  0
LWPOLYLINE
  5
9F
100
AcDbEntity
  8
0
 62
256
370
-1
 48
1.0
  6
BYLAYER
100
AcDbPolyline
 90
2
 70
128
 10
182.9746299999999906
 20
71.1748699999999985
 10
182.9746299999999906
 20
84.1748699999999985
  0
ARC
  5
A0
100
AcDbEntity
  8
0
 62
256
370
-1
 48
1.0
  6
BYLAYER
100
AcDbCircle
 10
183.4735348586040402
 20
84.1759651413959347
 30
0.0
 40
0.4989060605699397
100
AcDbArc
 50
89.8742307714673672
 51
180.1257692285297765
  0
LWPOLYLINE
  5
A1
100
AcDbEntity
  8
0
 62
256
370
-1
 48
1.0
  6
BYLAYER
100
AcDbPolyline
 90
2
 70
128
 10
202.5245799999999576
 20
84.6748699999999985
 10
215.5245799999999576
 20
84.6748699999999985
  0
ARC
  5
A2
100
AcDbEntity
  8
0
 62
256
370
-1
 48
1.0
  6
BYLAYER
100
AcDbCircle
 10
215.525675141395908
 20
84.1759651413959347
 30
0.0
 40
0.4989060605699272
100
AcDbArc
 50
359.8742307714701951
 51
90.1257692285326328
  0
LWPOLYLINE
  5
A3
100
AcDbEntity
  8
0
 62
256
370
-1
 48
1.0
  6
BYLAYER
100
AcDbPolyline
 90
2
 70
128
 10
216.0245799999999576
 20
84.1748699999999985
 10
216.0245799999999576
 20
71.1748699999999985
  0
ARC
  5
A4
100
AcDbEntity
  8
0
 62
256
370
-1
 48
1.0
  6
BYLAYER
100
AcDbCircle
 10
215.525675141395908
 20
71.173774858604034
 30
0.0
 40
0.4989060605699166
100
AcDbArc
 50
269.874230771467353
 51
0.1257692285326887
  0
LWPOLYLINE
  5
A5
100
AcDbEntity
  8
0
 62
256
370
-1
 48
1.0
  6
BYLAYER
100
AcDbPolyline
 90
2
 70
128
 10
215.5245799999999576
 20
70.6748699999999985
 10
202.5245799999999576
 20
70.6748699999999985
  0
ARC
  5
A6
100
AcDbEntity
  8
0
 62
256
370
-1
 48
1.0
  6
BYLAYER
100
AcDbCircle
 10
202.5234848586039789
 20
71.1737748586040482
 30
0.0
 40
0.4989060605698988
100
AcDbArc
 50
179.8742307714702235
 51
270.125769228535944
  0
LWPOLYLINE
  5
A7
100
AcDbEntity
  8
0
 62
256
370
-1
 48
1.0
  6
BYLAYER
100
AcDbPolyline
 90
2
 70
128
 10
202.0245799999999576
 20
71.1748699999999985
 10
202.0245799999999576
 20
84.1748699999999985
  0
ARC
  5
A8
100
AcDbEntity
  8
0
 62
256
370
-1
 48
1.0
  6
BYLAYER
100
AcDbCircle
 10
202.5234848586040357
 20
84.1759651413959205
 30
0.0
 40
0.4989060605699503
100
AcDbArc
 50
89.8742307714706357
 51
180.1257692285297765
  0
ARC
  5
A9
100
AcDbEntity
  8
0
 62
256
370
-1
 48
1.0
  6
BYLAYER
100
AcDbCircle
 10
221.5735881588382199
 20
84.1760107127028476
 30
0.0
 40
0.4988700145746769
100
AcDbArc
 50
89.902165041641581
 51
180.1562795706226723
  0
LWPOLYLINE
  5
AA
100
AcDbEntity
  8
0
 62
256
370
-1
 48
1.0
  6
BYLAYER
100
AcDbPolyline
 90
2
 70
128
 10
221.0747199999999566
 20
84.1746499999999997
 10
221.0747199999999566
 20
71.1749300000000034
  0
ARC
  5
AB
100
AcDbEntity
  8
0
 62
256
370
-1
 48
1.0
  6
BYLAYER
100
AcDbCircle
 10
221.5735881588382199
 20
71.1735692872971981
 30
0.0
 40
0.4988700145747165
100
AcDbArc
 50
179.8437204293820173
 51
270.097834958358419
  0
LWPOLYLINE
  5
AC
100
AcDbEntity
  8
0
 62
256
370
-1
 48
1.0
  6
BYLAYER
100
AcDbPolyline
 90
3
 70
128
 10
221.5744399999999814
 20
70.6747000000000014
 10
222.1211799999999812
 20
70.6747000000000014
 10
222.1211799999999812
 20
69.6597799999999978
  0
ARC
  5
AD
100
AcDbEntity
  8
0
 62
256
370
-1
 48
1.0
  6
BYLAYER
100
AcDbCircle
 10
223.1193267832965432
 20
69.6579856923762293
 30
0.0
 40
0.9981483960539475
100
AcDbArc
 50
179.8970029809517825
 51
270.1333575575668533
  0
LWPOLYLINE
  5
AE
100
AcDbEntity
  8
0
 62
256
370
-1
 48
1.0
  6
BYLAYER
100
AcDbPolyline
 90
2
 70
128
 10
223.1216499999999883
 20
68.6598400000000026
 10
228.1213199999999688
 20
68.6598400000000026
  0
ARC
  5
AF
100
AcDbEntity
  8
0
 62
256
370
-1
 48
1.0
  6
BYLAYER
100
AcDbCircle
 10
228.1235588499671678
 20
69.6575411500327988
 30
0.0
 40
0.9977036620289169
100
AcDbArc
 50
269.8714279934783917
 51
0.1285720065226958
  0
LWPOLYLINE
  5
B0
100
AcDbEntity
  8
0
 62
256
370
-1
 48
1.0
  6
BYLAYER
100
AcDbPolyline
 90
6
 70
128
 10
229.1212599999999497
 20
69.6597799999999978
 10
229.1212599999999497
 20
70.6747000000000014
 10
234.5746899999999755
 20
70.6747000000000014
 10
244.0996899999999528
 20
70.6747000000000014
 10
245.997229999999945
 20
70.6747000000000014
 10
245.997229999999945
 20
69.6597799999999978
  0
ARC
  5
B1
100
AcDbEntity
  8
0
 62
256
370
-1
 48
1.0
  6
BYLAYER
100
AcDbCircle
 10
246.9949438844645044
 20
69.6575538844645905
 30
0.0
 40
0.9977163679341839
100
AcDbArc
 50
179.8721609318878336
 51
270.1278390681115411
  0
LWPOLYLINE
  5
B2
100
AcDbEntity
  8
0
 62
256
370
-1
 48
1.0
  6
BYLAYER
100
AcDbPolyline
 90
2
 70
128
 10
246.9971699999999259
 20
68.6598400000000026
 10
251.9973999999999137
 20
68.6598400000000026
  0
ARC
  5
B3
100
AcDbEntity
  8
0
 62
256
370
-1
 48
1.0
  6
BYLAYER
100
AcDbCircle
 10
251.9996197481978015
 20
69.6575602518020816
 30
0.0
 40
0.9977227210693832
100
AcDbArc
 50
269.872527401094203
 51
0.1274725989063544
  0
LWPOLYLINE
  5
B4
100
AcDbEntity
  8
0
 62
256
370
-1
 48
1.0
  6
BYLAYER
100
AcDbPolyline
 90
3
 70
128
 10
252.9973399999998946
 20
69.6597799999999978
 10
252.9973399999998946
 20
70.6747000000000014
 10
253.6246899999998732
 20
70.6747000000000014
  0
ARC
  5
B5
100
AcDbEntity
  8
0
 62
256
370
-1
 48
1.0
  6
BYLAYER
100
AcDbCircle
 10
253.6255374201442692
 20
71.1735437861144646
 30
0.0
 40
0.4988445058993012
100
AcDbArc
 50
269.9026678242883008
 51
0.1592165623224244
  0
LWPOLYLINE
  5
B6
100
AcDbEntity
  8
0
 62
256
370
-1
 48
1.0
  6
BYLAYER
100
AcDbPolyline
 90
2
 70
128
 10
254.12437999999986
 20
71.1749300000000034
 10
254.12437999999986
 20
84.1746499999999997
  0
ARC
  5
B7
100
AcDbEntity
  8
0
 62
256
370
-1
 48
1.0
  6
BYLAYER
100
AcDbCircle
 10
253.6255374201442692
 20
84.1760362138855101
 30
0.0
 40
0.4988445058993198
100
AcDbArc
 50
359.8407834376798746
 51
90.0973321757116707
  0
LWPOLYLINE
  5
B8
100
AcDbEntity
  8
0
 62
256
370
-1
 48
1.0
  6
BYLAYER
100
AcDbPolyline
 90
4
 70
128
 10
253.6246899999998732
 20
84.6748800000000017
 10
244.0996899999998959
 20
84.6748800000000017
 10
234.5746899999999187
 20
84.6748800000000017
 10
221.5744399999999814
 20
84.6748800000000017
  0
LWPOLYLINE
  5
B9
100
AcDbEntity
  8
0
 62
256
370
-1
 48
1.0
  6
BYLAYER
100
AcDbPolyline
 90
2
 70
128
 10
31.0749700000000075
 20
84.6748699999999985
 10
44.0749700000000075
 20
84.6748699999999985
  0
ARC
  5
BA
100
AcDbEntity
  8
0
 62
256
370
-1
 48
1.0
  6
BYLAYER
100
AcDbCircle
 10
44.0760651413959579
 20
84.1759651413959347
 30
0.0
 40
0.4989060605699343
100
AcDbArc
 50
359.8742307714701951
 51
90.1257692285318086
  0
LWPOLYLINE
  5
BB
100
AcDbEntity
  8
0
 62
256
370
-1
 48
1.0
  6
BYLAYER
100
AcDbPolyline
 90
2
 70
128
 10
44.5749700000000075
 20
84.1748699999999985
 10
44.5749700000000075
 20
71.1748699999999985
  0
ARC
  5
BC
100
AcDbEntity
  8
0
 62
256
370
-1
 48
1.0
  6
BYLAYER
100
AcDbCircle
 10
44.0760651413959437
 20
71.1737748586040482
 30
0.0
 40
0.4989060605699343
100
AcDbArc
 50
269.8742307714690014
 51
0.1257692285297907
  0
LWPOLYLINE
  5
BD
100
AcDbEntity
  8
0
 62
256
370
-1
 48
1.0
  6
BYLAYER
100
AcDbPolyline
 90
2
 70
128
 10
44.0749700000000075
 20
70.6748699999999985
 10
31.0749700000000075
 20
70.6748699999999985
  0
ARC
  5
BE
100
AcDbEntity
  8
0
 62
256
370
-1
 48
1.0
  6
BYLAYER
100
AcDbCircle
 10
31.0738748586040714
 20
71.1737748586040482
 30
0.0
 40
0.4989060605699379
100
AcDbArc
 50
179.8742307714702235
 51
270.1257692285314533
  0
LWPOLYLINE
  5
BF
100
AcDbEntity
  8
0
 62
256
370
-1
 48
1.0
  6
BYLAYER
100
AcDbPolyline
 90
2
 70
128
 10
30.5749700000000075
 20
71.1748699999999985
 10
30.5749700000000075
 20
84.1748699999999985
  0
ARC
  5
C0
100
AcDbEntity
  8
0
 62
256
370
-1
 48
1.0
  6
BYLAYER
100
AcDbCircle
 10
31.0738748586040572
 20
84.1759651413959347
 30
0.0
 40
0.4989060605699396
100
AcDbArc
 50
89.8742307714681914
 51
180.1257692285297765
  0
LWPOLYLINE
  5
C1
100
AcDbEntity
  8
0
 62
256
370
-1
 48
1.0
  6
BYLAYER
100
AcDbPolyline
 90
2
 70
128
 10
233.4807899999999563
 20
65.6248999999999967
 10
246.4807899999999563
 20
65.6248999999999967
  0
ARC
  5
C2
100
AcDbEntity
  8
0
 62
256
370
-1
 48
1.0
  6
BYLAYER
100
AcDbCircle
 10
246.4818851413959067
 20
65.1259951413959612
 30
0.0
 40
0.4989060605699273
100
AcDbArc
 50
359.8742307714672961
 51
90.125769228532647
  0
LWPOLYLINE
  5
C3
100
AcDbEntity
  8
0
 62
256
370
-1
 48
1.0
  6
BYLAYER
100
AcDbPolyline
 90
2
 70
128
 10
246.9807899999999563
 20
65.1248999999999967
 10
246.9807899999999563
 20
52.1248999999999967
  0
ARC
  5
C4
100
AcDbEntity
  8
0
 62
256
370
-1
 48
1.0
  6
BYLAYER
100
AcDbCircle
 10
246.4818851413959067
 20
52.1238048586040676
 30
0.0
 40
0.4989060605699485
100
AcDbArc
 50
269.874230771467353
 51
0.1257692285297907
  0
LWPOLYLINE
  5
C5
100
AcDbEntity
  8
0
 62
256
370
-1
 48
1.0
  6
BYLAYER
100
AcDbPolyline
 90
2
 70
128
 10
246.4807899999999563
 20
51.6248999999999967
 10
233.4807899999999563
 20
51.6248999999999967
  0
ARC
  5
C6
100
AcDbEntity
  8
0
 62
256
370
-1
 48
1.0
  6
BYLAYER
100
AcDbCircle
 10
233.479694858604006
 20
52.1238048586040534
 30
0.0
 40
0.4989060605699272
100
AcDbArc
 50
179.8742307714702235
 51
270.125769228532647
  0
LWPOLYLINE
  5
C7
100
AcDbEntity
  8
0
 62
256
370
-1
 48
1.0
  6
BYLAYER
100
AcDbPolyline
 90
2
 70
128
 10
232.9807899999999563
 20
52.1248999999999967
 10
232.9807899999999563
 20
65.1248999999999967
  0
ARC
  5
C8
100
AcDbEntity
  8
0
 62
256
370
-1
 48
1.0
  6
BYLAYER
100
AcDbCircle
 10
233.4796948586040344
 20
65.1259951413959186
 30
0.0
 40
0.4989060605699485
100
AcDbArc
 50
89.8742307714706357
 51
180.1257692285297765
  0
LWPOLYLINE
  5
C9
100
AcDbEntity
  8
0
 62
256
370
-1
 48
1.0
  6
BYLAYER
100
AcDbPolyline
 90
2
 70
128
 10
207.2870699999999715
 20
65.6248999999999967
 10
220.2870699999999715
 20
65.6248999999999967
  0
ARC
  5
CA
100
AcDbEntity
  8
0
 62
256
370
-1
 48
1.0
  6
BYLAYER
100
AcDbCircle
 10
220.2881651413958934
 20
65.1259951413959186
 30
0.0
 40
0.4989060605699556
100
AcDbArc
 50
359.8742307714701951
 51
90.1257692285293786
  0
LWPOLYLINE
  5
CB
100
AcDbEntity
  8
0
 62
256
370
-1
 48
1.0
  6
BYLAYER
100
AcDbPolyline
 90
2
 70
128
 10
220.7870699999999715
 20
65.1248999999999967
 10
220.7870699999999715
 20
52.1248999999999967
  0
ARC
  5
CC
100
AcDbEntity
  8
0
 62
256
370
-1
 48
1.0
  6
BYLAYER
100
AcDbCircle
 10
220.2881651413958934
 20
52.1238048586040748
 30
0.0
 40
0.4989060605699556
100
AcDbArc
 50
269.874230771470593
 51
0.1257692285297907
  0
LWPOLYLINE
  5
CD
100
AcDbEntity
  8
0
 62
256
370
-1
 48
1.0
  6
BYLAYER
100
AcDbPolyline
 90
2
 70
128
 10
220.2870699999999715
 20
51.6248999999999967
 10
207.2870699999999715
 20
51.6248999999999967
  0
ARC
  5
CE
100
AcDbEntity
  8
0
 62
256
370
-1
 48
1.0
  6
BYLAYER
100
AcDbCircle
 10
207.2859748586040496
 20
52.1238048586040748
 30
0.0
 40
0.4989060605699556
100
AcDbArc
 50
179.8742307714702235
 51
270.1257692285293501
  0
LWPOLYLINE
  5
CF
100
AcDbEntity
  8
0
 62
256
370
-1
 48
1.0
  6
BYLAYER
100
AcDbPolyline
 90
2
 70
128
 10
206.7870699999999715
 20
52.1248999999999967
 10
206.7870699999999715
 20
65.1248999999999967
  0
ARC
  5
D0
100
AcDbEntity
  8
0
 62
256
370
-1
 48
1.0
  6
BYLAYER
100
AcDbCircle
 10
207.2859748586039927
 20
65.125995141395947
 30
0.0
 40
0.4989060605699344
100
AcDbArc
 50
89.8742307714640987
 51
180.1257692285297765
  0
LWPOLYLINE
  5
D1
100
AcDbEntity
  8
0
 62
256
370
-1
 48
1.0
  6
BYLAYER
100
AcDbPolyline
 90
2
 70
128
 10
188.2371099999999728
 20
65.6248999999999967
 10
201.2371099999999728
 20
65.6248999999999967
  0
ARC
  5
D2
100
AcDbEntity
  8
0
 62
256
370
-1
 48
1.0
  6
BYLAYER
100
AcDbCircle
 10
201.2382051413958948
 20
65.125995141395947
 30
0.0
 40
0.4989060605699556
100
AcDbArc
 50
359.8742307714701951
 51
90.1257692285293786
  0
LWPOLYLINE
  5
D3
100
AcDbEntity
  8
0
 62
256
370
-1
 48
1.0
  6
BYLAYER
100
AcDbPolyline
 90
2
 70
128
 10
201.7371099999999728
 20
65.1248999999999967
 10
201.7371099999999728
 20
52.1248999999999967
  0
ARC
  5
D4
100
AcDbEntity
  8
0
 62
256
370
-1
 48
1.0
  6
BYLAYER
100
AcDbCircle
 10
201.2382051413958948
 20
52.1238048586040748
 30
0.0
 40
0.4989060605699556
100
AcDbArc
 50
269.874230771470593
 51
0.1257692285297907
  0
LWPOLYLINE
  5
D5
100
AcDbEntity
  8
0
 62
256
370
-1
 48
1.0
  6
BYLAYER
100
AcDbPolyline
 90
2
 70
128
 10
201.2371099999999728
 20
51.6248999999999967
 10
188.2371099999999728
 20
51.6248999999999967
  0
ARC
  5
D6
100
AcDbEntity
  8
0
 62
256
370
-1
 48
1.0
  6
BYLAYER
100
AcDbCircle
 10
188.2360148586040225
 20
52.1238048586040961
 30
0.0
 40
0.4989060605699271
100
AcDbArc
 50
179.8742307714731226
 51
270.1257692285325902
  0
LWPOLYLINE
  5
D7
100
AcDbEntity
  8
0
 62
256
370
-1
 48
1.0
  6
BYLAYER
100
AcDbPolyline
 90
2
 70
128
 10
187.7371099999999728
 20
52.1248999999999967
 10
187.7371099999999728
 20
65.1248999999999967
  0
ARC
  5
D8
100
AcDbEntity
  8
0
 62
256
370
-1
 48
1.0
  6
BYLAYER
100
AcDbCircle
 10
188.2360148586040509
 20
65.1259951413959186
 30
0.0
 40
0.4989060605699485
100
AcDbArc
 50
89.8742307714706357
 51
180.1257692285297765
  0
LWPOLYLINE
  5
D9
100
AcDbEntity
  8
0
 62
256
370
-1
 48
1.0
  6
BYLAYER
100
AcDbPolyline
 90
2
 70
128
 10
169.1871499999999742
 20
65.6248999999999967
 10
182.1871499999999742
 20
65.6248999999999967
  0
ARC
  5
DA
100
AcDbEntity
  8
0
 62
256
370
-1
 48
1.0
  6
BYLAYER
100
AcDbCircle
 10
182.1882451413959245
 20
65.1259951413959612
 30
0.0
 40
0.4989060605699273
100
AcDbArc
 50
359.8742307714672961
 51
90.125769228532647
  0
LWPOLYLINE
  5
DB
100
AcDbEntity
  8
0
 62
256
370
-1
 48
1.0
  6
BYLAYER
100
AcDbPolyline
 90
2
 70
128
 10
182.6871499999999742
 20
65.1248999999999967
 10
182.6871499999999742
 20
52.1248999999999967
  0
ARC
  5
DC
100
AcDbEntity
  8
0
 62
256
370
-1
 48
1.0
  6
BYLAYER
100
AcDbCircle
 10
182.1882451413958961
 20
52.1238048586040534
 30
0.0
 40
0.4989060605699343
100
AcDbArc
 50
269.874230771470593
 51
0.1257692285297907
  0
LWPOLYLINE
  5
DD
100
AcDbEntity
  8
0
 62
256
370
-1
 48
1.0
  6
BYLAYER
100
AcDbPolyline
 90
2
 70
128
 10
182.1871499999999742
 20
51.6248999999999967
 10
169.1871499999999742
 20
51.6248999999999967
  0
ARC
  5
DE
100
AcDbEntity
  8
0
 62
256
370
-1
 48
1.0
  6
BYLAYER
100
AcDbCircle
 10
169.1860548586040522
 20
52.1238048586040748
 30
0.0
 40
0.4989060605699556
100
AcDbArc
 50
179.8742307714702235
 51
270.1257692285293501
  0
LWPOLYLINE
  5
DF
100
AcDbEntity
  8
0
 62
256
370
-1
 48
1.0
  6
BYLAYER
100
AcDbPolyline
 90
2
 70
128
 10
168.6871499999999742
 20
52.1248999999999967
 10
168.6871499999999742
 20
65.1248999999999967
  0
ARC
  5
E0
100
AcDbEntity
  8
0
 62
256
370
-1
 48
1.0
  6
BYLAYER
100
AcDbCircle
 10
169.1860548586040522
 20
65.1259951413959328
 30
0.0
 40
0.4989060605699414
100
AcDbArc
 50
89.8742307714706357
 51
180.1257692285297765
  0
LWPOLYLINE
  5
E1
100
AcDbEntity
  8
0
 62
256
370
-1
 48
1.0
  6
BYLAYER
100
AcDbPolyline
 90
2
 70
128
 10
150.1371899999999755
 20
65.6248999999999967
 10
163.1371899999999755
 20
65.6248999999999967
  0
ARC
  5
E2
100
AcDbEntity
  8
0
 62
256
370
-1
 48
1.0
  6
BYLAYER
100
AcDbCircle
 10
163.1382851413959543
 20
65.1259951413959186
 30
0.0
 40
0.4989060605698987
100
AcDbArc
 50
359.8742307714730941
 51
90.1257692285359013
  0
LWPOLYLINE
  5
E3
100
AcDbEntity
  8
0
 62
256
370
-1
 48
1.0
  6
BYLAYER
100
AcDbPolyline
 90
2
 70
128
 10
163.6371899999999755
 20
65.1248999999999967
 10
163.6371899999999755
 20
52.1248999999999967
  0
ARC
  5
E4
100
AcDbEntity
  8
0
 62
256
370
-1
 48
1.0
  6
BYLAYER
100
AcDbCircle
 10
163.1382851413958974
 20
52.1238048586040676
 30
0.0
 40
0.4989060605699485
100
AcDbArc
 50
269.874230771470593
 51
0.1257692285297907
  0
LWPOLYLINE
  5
E5
100
AcDbEntity
  8
0
 62
256
370
-1
 48
1.0
  6
BYLAYER
100
AcDbPolyline
 90
2
 70
128
 10
163.1371899999999755
 20
51.6248999999999967
 10
150.1371899999999755
 20
51.6248999999999967
  0
ARC
  5
E6
100
AcDbEntity
  8
0
 62
256
370
-1
 48
1.0
  6
BYLAYER
100
AcDbCircle
 10
150.1360948586040536
 20
52.1238048586040676
 30
0.0
 40
0.4989060605699556
100
AcDbArc
 50
179.8742307714702235
 51
270.1257692285293501
  0
LWPOLYLINE
  5
E7
100
AcDbEntity
  8
0
 62
256
370
-1
 48
1.0
  6
BYLAYER
100
AcDbPolyline
 90
2
 70
128
 10
149.6371899999999755
 20
52.1248999999999967
 10
149.6371899999999755
 20
65.1248999999999967
  0
ARC
  5
E8
100
AcDbEntity
  8
0
 62
256
370
-1
 48
1.0
  6
BYLAYER
100
AcDbCircle
 10
150.1360948586039967
 20
65.125995141395947
 30
0.0
 40
0.4989060605699344
100
AcDbArc
 50
89.8742307714640987
 51
180.1257692285297765
  0
LWPOLYLINE
  5
E9
100
AcDbEntity
  8
0
 62
256
370
-1
 48
1.0
  6
BYLAYER
100
AcDbPolyline
 90
2
 70
128
 10
131.0872099999999705
 20
65.6248999999999967
 10
144.0872099999999705
 20
65.6248999999999967
  0
ARC
  5
EA
100
AcDbEntity
  8
0
 62
256
370
-1
 48
1.0
  6
BYLAYER
100
AcDbCircle
 10
144.0883051413959208
 20
65.125995141395947
 30
0.0
 40
0.4989060605699272
100
AcDbArc
 50
359.8742307714701951
 51
90.125769228532647
  0
LWPOLYLINE
  5
EB
100
AcDbEntity
  8
0
 62
256
370
-1
 48
1.0
  6
BYLAYER
100
AcDbPolyline
 90
2
 70
128
 10
144.5872099999999705
 20
65.1248999999999967
 10
144.5872099999999705
 20
52.1248999999999967
  0
ARC
  5
EC
100
AcDbEntity
  8
0
 62
256
370
-1
 48
1.0
  6
BYLAYER
100
AcDbCircle
 10
144.0883051413958924
 20
52.1238048586040676
 30
0.0
 40
0.4989060605699485
100
AcDbArc
 50
269.874230771470593
 51
0.1257692285297907
  0
LWPOLYLINE
  5
ED
100
AcDbEntity
  8
0
 62
256
370
-1
 48
1.0
  6
BYLAYER
100
AcDbPolyline
 90
2
 70
128
 10
144.0872099999999705
 20
51.6248999999999967
 10
131.0872099999999705
 20
51.6248999999999967
  0
ARC
  5
EE
100
AcDbEntity
  8
0
 62
256
370
-1
 48
1.0
  6
BYLAYER
100
AcDbCircle
 10
131.0861148586040201
 20
52.1238048586040676
 30
0.0
 40
0.4989060605699272
100
AcDbArc
 50
179.8742307714702235
 51
270.125769228532647
  0
LWPOLYLINE
  5
EF
100
AcDbEntity
  8
0
 62
256
370
-1
 48
1.0
  6
BYLAYER
100
AcDbPolyline
 90
2
 70
128
 10
130.5872099999999705
 20
52.1248999999999967
 10
130.5872099999999705
 20
65.1248999999999967
  0
ARC
  5
F0
100
AcDbEntity
  8
0
 62
256
370
-1
 48
1.0
  6
BYLAYER
100
AcDbCircle
 10
131.0861148586040201
 20
65.125995141395947
 30
0.0
 40
0.4989060605699273
100
AcDbArc
 50
89.8742307714673672
 51
180.1257692285327039
  0
LWPOLYLINE
  5
F1
100
AcDbEntity
  8
0
 62
256
370
-1
 48
1.0
  6
BYLAYER
100
AcDbPolyline
 90
2
 70
128
 10
112.0372799999999529
 20
65.6248999999999967
 10
125.0372799999999529
 20
65.6248999999999967
  0
ARC
  5
F2
100
AcDbEntity
  8
0
 62
256
370
-1
 48
1.0
  6
BYLAYER
100
AcDbCircle
 10
125.0383751413958606
 20
65.1259951413958902
 30
0.0
 40
0.4989060605699697
100
AcDbArc
 50
359.8742307714759932
 51
90.1257692285277301
  0
LWPOLYLINE
  5
F3
100
AcDbEntity
  8
0
 62
256
370
-1
 48
1.0
  6
BYLAYER
100
AcDbPolyline
 90
2
 70
128
 10
125.5372799999999529
 20
65.1248999999999967
 10
125.5372799999999529
 20
52.1248999999999967
  0
ARC
  5
F4
100
AcDbEntity
  8
0
 62
256
370
-1
 48
1.0
  6
BYLAYER
100
AcDbCircle
 10
125.038375141395818
 20
52.1238048586041245
 30
0.0
 40
0.4989060605700052
100
AcDbArc
 50
269.8742307714771869
 51
0.1257692285210971
  0
LWPOLYLINE
  5
F5
100
AcDbEntity
  8
0
 62
256
370
-1
 48
1.0
  6
BYLAYER
100
AcDbPolyline
 90
2
 70
128
 10
125.0372799999999529
 20
51.6248999999999967
 10
112.0372799999999529
 20
51.6248999999999967
  0
ARC
  5
F6
100
AcDbEntity
  8
0
 62
256
370
-1
 48
1.0
  6
BYLAYER
100
AcDbCircle
 10
112.0361848586040736
 20
52.1238048586041245
 30
0.0
 40
0.4989060605699981
100
AcDbArc
 50
179.8742307714789206
 51
270.1257692285244616
  0
LWPOLYLINE
  5
F7
100
AcDbEntity
  8
0
 62
256
370
-1
 48
1.0
  6
BYLAYER
100
AcDbPolyline
 90
2
 70
128
 10
111.5372799999999529
 20
52.1248999999999967
 10
111.5372799999999529
 20
65.1248999999999967
  0
ARC
  5
F8
100
AcDbEntity
  8
0
 62
256
370
-1
 48
1.0
  6
BYLAYER
100
AcDbCircle
 10
112.0361848586040594
 20
65.125995141395876
 30
0.0
 40
0.4989060605699981
100
AcDbArc
 50
89.8742307714739184
 51
180.125769228521051
  0
LWPOLYLINE
  5
F9
100
AcDbEntity
  8
0
 62
256
370
-1
 48
1.0
  6
BYLAYER
100
AcDbPolyline
 90
2
 70
128
 10
92.9873199999999542
 20
65.6248999999999967
 10
105.9873199999999542
 20
65.6248999999999967
  0
ARC
  5
FA
100
AcDbEntity
  8
0
 62
256
370
-1
 48
1.0
  6
BYLAYER
100
AcDbCircle
 10
105.988415141395862
 20
65.1259951413958902
 30
0.0
 40
0.4989060605699698
100
AcDbArc
 50
359.8742307714730941
 51
90.1257692285277301
  0
LWPOLYLINE
  5
FB
100
AcDbEntity
  8
0
 62
256
370
-1
 48
1.0
  6
BYLAYER
100
AcDbPolyline
 90
2
 70
128
 10
106.4873199999999542
 20
65.1248999999999967
 10
106.4873199999999542
 20
52.1248999999999967
  0
ARC
  5
FC
100
AcDbEntity
  8
0
 62
256
370
-1
 48
1.0
  6
BYLAYER
100
AcDbCircle
 10
105.9884151413958335
 20
52.1238048586041245
 30
0.0
 40
0.4989060605700052
100
AcDbArc
 50
269.8742307714755384
 51
0.1257692285210971
  0
LWPOLYLINE
  5
FD
100
AcDbEntity
  8
0
 62
256
370
-1
 48
1.0
  6
BYLAYER
100
AcDbPolyline
 90
2
 70
128
 10
105.9873199999999542
 20
51.6248999999999967
 10
92.9873199999999542
 20
51.6248999999999967
  0
ARC
  5
FE
100
AcDbEntity
  8
0
 62
256
370
-1
 48
1.0
  6
BYLAYER
100
AcDbCircle
 10
92.9862248586040181
 20
52.1238048586040534
 30
0.0
 40
0.4989060605699414
100
AcDbArc
 50
179.8742307714702235
 51
270.1257692285309986
  0
LWPOLYLINE
  5
FF
100
AcDbEntity
  8
0
 62
256
370
-1
 48
1.0
  6
BYLAYER
100
AcDbPolyline
 90
2
 70
128
 10
92.4873199999999542
 20
52.1248999999999967
 10
92.4873199999999542
 20
65.1248999999999967
  0
ARC
  5
100
100
AcDbEntity
  8
0
 62
256
370
-1
 48
1.0
  6
BYLAYER
100
AcDbCircle
 10
92.9862248586040323
 20
65.1259951413959328
 30
0.0
 40
0.4989060605699414
100
AcDbArc
 50
89.8742307714706357
 51
180.1257692285297765
  0
LWPOLYLINE
  5
101
100
AcDbEntity
  8
0
 62
256
370
-1
 48
1.0
  6
BYLAYER
100
AcDbPolyline
 90
2
 70
128
 10
73.9374000000000251
 20
65.6248999999999967
 10
86.9374000000000251
 20
65.6248999999999967
  0
ARC
  5
102
100
AcDbEntity
  8
0
 62
256
370
-1
 48
1.0
  6
BYLAYER
100
AcDbCircle
 10
86.9384951413959755
 20
65.125995141395947
 30
0.0
 40
0.4989060605699272
100
AcDbArc
 50
359.8742307714701951
 51
90.125769228532647
  0
LWPOLYLINE
  5
103
100
AcDbEntity
  8
0
 62
256
370
-1
 48
1.0
  6
BYLAYER
100
AcDbPolyline
 90
2
 70
128
 10
87.4374000000000251
 20
65.1248999999999967
 10
87.4374000000000251
 20
52.1248999999999967
  0
ARC
  5
104
100
AcDbEntity
  8
0
 62
256
370
-1
 48
1.0
  6
BYLAYER
100
AcDbCircle
 10
86.938495141395947
 20
52.1238048586040748
 30
0.0
 40
0.4989060605699556
100
AcDbArc
 50
269.874230771470593
 51
0.1257692285297907
  0
LWPOLYLINE
  5
105
100
AcDbEntity
  8
0
 62
256
370
-1
 48
1.0
  6
BYLAYER
100
AcDbPolyline
 90
2
 70
128
 10
86.9374000000000251
 20
51.6248999999999967
 10
73.9374000000000251
 20
51.6248999999999967
  0
ARC
  5
106
100
AcDbEntity
  8
0
 62
256
370
-1
 48
1.0
  6
BYLAYER
100
AcDbCircle
 10
73.936304858604089
 20
52.1238048586040676
 30
0.0
 40
0.4989060605699414
100
AcDbArc
 50
179.8742307714702235
 51
270.1257692285309986
  0
LWPOLYLINE
  5
107
100
AcDbEntity
  8
0
 62
256
370
-1
 48
1.0
  6
BYLAYER
100
AcDbPolyline
 90
2
 70
128
 10
73.4374000000000251
 20
52.1248999999999967
 10
73.4374000000000251
 20
65.1248999999999967
  0
ARC
  5
108
100
AcDbEntity
  8
0
 62
256
370
-1
 48
1.0
  6
BYLAYER
100
AcDbCircle
 10
73.9363048586041032
 20
65.1259951413959328
 30
0.0
 40
0.4989060605699414
100
AcDbArc
 50
89.8742307714706357
 51
180.1257692285297765
  0
LWPOLYLINE
  5
109
100
AcDbEntity
  8
0
 62
256
370
-1
 48
1.0
  6
BYLAYER
100
AcDbPolyline
 90
2
 70
128
 10
54.8874099999999316
 20
65.6248999999999967
 10
67.8874099999999316
 20
65.6248999999999967
  0
ARC
  5
10A
100
AcDbEntity
  8
0
 62
256
370
-1
 48
1.0
  6
BYLAYER
100
AcDbCircle
 10
67.888505141395882
 20
65.1259951413959186
 30
0.0
 40
0.4989060605699272
100
AcDbArc
 50
359.8742307714701951
 51
90.1257692285326328
  0
LWPOLYLINE
  5
10B
100
AcDbEntity
  8
0
 62
256
370
-1
 48
1.0
  6
BYLAYER
100
AcDbPolyline
 90
2
 70
128
 10
68.3874099999999316
 20
65.1248999999999967
 10
68.3874099999999316
 20
52.1248999999999967
  0
ARC
  5
10C
100
AcDbEntity
  8
0
 62
256
370
-1
 48
1.0
  6
BYLAYER
100
AcDbCircle
 10
67.8885051413958536
 20
52.1238048586040748
 30
0.0
 40
0.4989060605699556
100
AcDbArc
 50
269.874230771470593
 51
0.1257692285297907
  0
LWPOLYLINE
  5
10D
100
AcDbEntity
  8
0
 62
256
370
-1
 48
1.0
  6
BYLAYER
100
AcDbPolyline
 90
2
 70
128
 10
67.8874099999999316
 20
51.6248999999999967
 10
54.8874099999999316
 20
51.6248999999999967
  0
ARC
  5
10E
100
AcDbEntity
  8
0
 62
256
370
-1
 48
1.0
  6
BYLAYER
100
AcDbCircle
 10
54.8863148586040097
 20
52.1238048586040819
 30
0.0
 40
0.4989060605699485
100
AcDbArc
 50
179.8742307714731226
 51
270.1257692285300891
  0
LWPOLYLINE
  5
10F
100
AcDbEntity
  8
0
 62
256
370
-1
 48
1.0
  6
BYLAYER
100
AcDbPolyline
 90
2
 70
128
 10
54.3874099999999316
 20
52.1248999999999967
 10
54.3874099999999316
 20
65.1248999999999967
  0
ARC
  5
110
100
AcDbEntity
  8
0
 62
256
370
-1
 48
1.0
  6
BYLAYER
100
AcDbCircle
 10
54.8863148586039955
 20
65.125995141395947
 30
0.0
 40
0.4989060605699343
100
AcDbArc
 50
89.8742307714690014
 51
180.1257692285297765
  0
LWPOLYLINE
  5
111
100
AcDbEntity
  8
0
 62
256
370
-1
 48
1.0
  6
BYLAYER
100
AcDbPolyline
 90
2
 70
128
 10
35.8374199999999519
 20
65.6248999999999967
 10
48.8374199999999519
 20
65.6248999999999967
  0
ARC
  5
112
100
AcDbEntity
  8
0
 62
256
370
-1
 48
1.0
  6
BYLAYER
100
AcDbCircle
 10
48.8385151413959022
 20
65.125995141395947
 30
0.0
 40
0.4989060605699343
100
AcDbArc
 50
359.8742307714701951
 51
90.1257692285318086
  0
LWPOLYLINE
  5
113
100
AcDbEntity
  8
0
 62
256
370
-1
 48
1.0
  6
BYLAYER
100
AcDbPolyline
 90
2
 70
128
 10
49.3374199999999519
 20
65.1248999999999967
 10
49.3374199999999519
 20
52.1248999999999967
  0
ARC
  5
114
100
AcDbEntity
  8
0
 62
256
370
-1
 48
1.0
  6
BYLAYER
100
AcDbCircle
 10
48.8385151413958738
 20
52.1238048586040819
 30
0.0
 40
0.4989060605699627
100
AcDbArc
 50
269.8742307714697972
 51
0.1257692285268929
  0
LWPOLYLINE
  5
115
100
AcDbEntity
  8
0
 62
256
370
-1
 48
1.0
  6
BYLAYER
100
AcDbPolyline
 90
2
 70
128
 10
48.8374199999999519
 20
51.6248999999999967
 10
35.8374199999999519
 20
51.6248999999999967
  0
ARC
  5
116
100
AcDbEntity
  8
0
 62
256
370
-1
 48
1.0
  6
BYLAYER
100
AcDbCircle
 10
35.8363248586040299
 20
52.1238048586040819
 30
0.0
 40
0.4989060605699485
100
AcDbArc
 50
179.8742307714731226
 51
270.1257692285300891
  0
LWPOLYLINE
  5
117
100
AcDbEntity
  8
0
 62
256
370
-1
 48
1.0
  6
BYLAYER
100
AcDbPolyline
 90
2
 70
128
 10
35.3374199999999519
 20
52.1248999999999967
 10
35.3374199999999519
 20
65.1248999999999967
  0
ARC
  5
118
100
AcDbEntity
  8
0
 62
256
370
-1
 48
1.0
  6
BYLAYER
100
AcDbCircle
 10
35.8363248586040015
 20
65.1259951413959328
 30
0.0
 40
0.4989060605699414
100
AcDbArc
 50
89.8742307714681914
 51
180.1257692285297765
  0
LWPOLYLINE
  5
119
100
AcDbEntity
  8
0
 62
256
370
-1
 48
1.0
  6
BYLAYER
100
AcDbPolyline
 90
2
 70
128
 10
14.4062699999999495
 20
65.6248999999999967
 10
27.4062699999999495
 20
65.6248999999999967
  0
ARC
  5
11A
100
AcDbEntity
  8
0
 62
256
370
-1
 48
1.0
  6
BYLAYER
100
AcDbCircle
 10
27.4073651413958999
 20
65.125995141395947
 30
0.0
 40
0.4989060605699308
100
AcDbArc
 50
359.8742307714701951
 51
90.1257692285322349
  0
LWPOLYLINE
  5
11B
100
AcDbEntity
  8
0
 62
256
370
-1
 48
1.0
  6
BYLAYER
100
AcDbPolyline
 90
2
 70
128
 10
27.9062699999999495
 20
65.1248999999999967
 10
27.9062699999999495
 20
52.1248999999999967
  0
ARC
  5
11C
100
AcDbEntity
  8
0
 62
256
370
-1
 48
1.0
  6
BYLAYER
100
AcDbCircle
 10
27.4073651413958714
 20
52.1238048586040748
 30
0.0
 40
0.4989060605699556
100
AcDbArc
 50
269.8742307714697972
 51
0.1257692285268929
  0
LWPOLYLINE
  5
11D
100
AcDbEntity
  8
0
 62
256
370
-1
 48
1.0
  6
BYLAYER
100
AcDbPolyline
 90
2
 70
128
 10
27.4062699999999495
 20
51.6248999999999967
 10
14.4062699999999495
 20
51.6248999999999967
  0
ARC
  5
11E
100
AcDbEntity
  8
0
 62
256
370
-1
 48
1.0
  6
BYLAYER
100
AcDbCircle
 10
14.4051748586040276
 20
52.1238048586040819
 30
0.0
 40
0.4989060605699485
100
AcDbArc
 50
179.8742307714731226
 51
270.1257692285300891
  0
LWPOLYLINE
  5
11F
100
AcDbEntity
  8
0
 62
256
370
-1
 48
1.0
  6
BYLAYER
100
AcDbPolyline
 90
2
 70
128
 10
13.9062699999999495
 20
52.1248999999999967
 10
13.9062699999999495
 20
65.1248999999999967
  0
ARC
  5
120
100
AcDbEntity
  8
0
 62
256
370
-1
 48
1.0
  6
BYLAYER
100
AcDbCircle
 10
14.4051748586040134
 20
65.1259951413959328
 30
0.0
 40
0.4989060605699414
100
AcDbArc
 50
89.8742307714688025
 51
180.1257692285297765
  0
LWPOLYLINE
  5
121
100
AcDbEntity
  8
0
 62
256
370
-1
 48
1.0
  6
BYLAYER
100
AcDbPolyline
 90
2
 70
128
 10
19.1687200000000075
 20
46.574939999999998
 10
32.1687200000000075
 20
46.574939999999998
  0
ARC
  5
122
100
AcDbEntity
  8
0
 62
256
370
-1
 48
1.0
  6
BYLAYER
100
AcDbCircle
 10
32.1698151413959295
 20
46.0760351413959128
 30
0.0
 40
0.4989060605699591
100
AcDbArc
 50
359.8742307714730941
 51
90.1257692285289522
  0
LWPOLYLINE
  5
123
100
AcDbEntity
  8
0
 62
256
370
-1
 48
1.0
  6
BYLAYER
100
AcDbPolyline
 90
2
 70
128
 10
32.6687200000000075
 20
46.074939999999998
 10
32.6687200000000075
 20
33.074939999999998
  0
ARC
  5
124
100
AcDbEntity
  8
0
 62
256
370
-1
 48
1.0
  6
BYLAYER
100
AcDbCircle
 10
32.1698151413959295
 20
33.0738448586040761
 30
0.0
 40
0.4989060605699556
100
AcDbArc
 50
269.8742307714714457
 51
0.1257692285297907
  0
LWPOLYLINE
  5
125
100
AcDbEntity
  8
0
 62
256
370
-1
 48
1.0
  6
BYLAYER
100
AcDbPolyline
 90
2
 70
128
 10
32.1687200000000075
 20
32.574939999999998
 10
19.1687200000000075
 20
32.574939999999998
  0
ARC
  5
126
100
AcDbEntity
  8
0
 62
256
370
-1
 48
1.0
  6
BYLAYER
100
AcDbCircle
 10
19.1676248586040998
 20
33.0738448586040761
 30
0.0
 40
0.4989060605699663
100
AcDbArc
 50
179.8742307714702235
 51
270.1257692285281564
  0
LWPOLYLINE
  5
127
100
AcDbEntity
  8
0
 62
256
370
-1
 48
1.0
  6
BYLAYER
100
AcDbPolyline
 90
2
 70
128
 10
18.6687200000000075
 20
33.074939999999998
 10
18.6687200000000075
 20
46.074939999999998
  0
ARC
  5
128
100
AcDbEntity
  8
0
 62
256
370
-1
 48
1.0
  6
BYLAYER
100
AcDbCircle
 10
19.1676248586040856
 20
46.0760351413959199
 30
0.0
 40
0.4989060605699556
100
AcDbArc
 50
89.8742307714702378
 51
180.1257692285297765
  0
LWPOLYLINE
  5
129
100
AcDbEntity
  8
0
 62
256
370
-1
 48
1.0
  6
BYLAYER
100
AcDbPolyline
 90
2
 70
128
 10
45.3624499999999671
 20
46.574939999999998
 10
58.3624499999999671
 20
46.574939999999998
  0
ARC
  5
12A
100
AcDbEntity
  8
0
 62
256
370
-1
 48
1.0
  6
BYLAYER
100
AcDbCircle
 10
58.363545141395889
 20
46.0760351413959128
 30
0.0
 40
0.4989060605699556
100
AcDbArc
 50
359.8742307714730941
 51
90.1257692285293501
  0
LWPOLYLINE
  5
12B
100
AcDbEntity
  8
0
 62
256
370
-1
 48
1.0
  6
BYLAYER
100
AcDbPolyline
 90
2
 70
128
 10
58.8624499999999671
 20
46.074939999999998
 10
58.8624499999999671
 20
33.074939999999998
  0
ARC
  5
12C
100
AcDbEntity
  8
0
 62
256
370
-1
 48
1.0
  6
BYLAYER
100
AcDbCircle
 10
58.363545141395889
 20
33.0738448586040761
 30
0.0
 40
0.4989060605699556
100
AcDbArc
 50
269.8742307714714457
 51
0.1257692285297907
  0
LWPOLYLINE
  5
12D
100
AcDbEntity
  8
0
 62
256
370
-1
 48
1.0
  6
BYLAYER
100
AcDbPolyline
 90
2
 70
128
 10
58.3624499999999671
 20
32.574939999999998
 10
45.3624499999999671
 20
32.574939999999998
  0
ARC
  5
12E
100
AcDbEntity
  8
0
 62
256
370
-1
 48
1.0
  6
BYLAYER
100
AcDbCircle
 10
45.3613548586040594
 20
33.0738448586040761
 30
0.0
 40
0.4989060605699698
100
AcDbArc
 50
179.8742307714702235
 51
270.1257692285277585
  0
LWPOLYLINE
  5
12F
100
AcDbEntity
  8
0
 62
256
370
-1
 48
1.0
  6
BYLAYER
100
AcDbPolyline
 90
2
 70
128
 10
44.8624499999999671
 20
33.074939999999998
 10
44.8624499999999671
 20
46.074939999999998
  0
ARC
  5
130
100
AcDbEntity
  8
0
 62
256
370
-1
 48
1.0
  6
BYLAYER
100
AcDbCircle
 10
45.3613548586040309
 20
46.076035141395927
 30
0.0
 40
0.4989060605699485
100
AcDbArc
 50
89.8742307714690014
 51
180.1257692285297765
  0
LWPOLYLINE
  5
131
100
AcDbEntity
  8
0
 62
256
370
-1
 48
1.0
  6
BYLAYER
100
AcDbPolyline
 90
2
 70
128
 10
64.4123700000000099
 20
46.574939999999998
 10
77.4123700000000099
 20
46.574939999999998
  0
ARC
  5
132
100
AcDbEntity
  8
0
 62
256
370
-1
 48
1.0
  6
BYLAYER
100
AcDbCircle
 10
77.413465141395946
 20
46.0760351413959484
 30
0.0
 40
0.4989060605699415
100
AcDbArc
 50
359.8742307714672961
 51
90.1257692285309986
  0
LWPOLYLINE
  5
133
100
AcDbEntity
  8
0
 62
256
370
-1
 48
1.0
  6
BYLAYER
100
AcDbPolyline
 90
2
 70
128
 10
77.9123700000000099
 20
46.074939999999998
 10
77.9123700000000099
 20
33.074939999999998
  0
ARC
  5
134
100
AcDbEntity
  8
0
 62
256
370
-1
 48
1.0
  6
BYLAYER
100
AcDbCircle
 10
77.4134651413959318
 20
33.0738448586040761
 30
0.0
 40
0.4989060605699556
100
AcDbArc
 50
269.874230771470593
 51
0.1257692285297907
  0
LWPOLYLINE
  5
135
100
AcDbEntity
  8
0
 62
256
370
-1
 48
1.0
  6
BYLAYER
100
AcDbPolyline
 90
2
 70
128
 10
77.4123700000000099
 20
32.574939999999998
 10
64.4123700000000099
 20
32.574939999999998
  0
ARC
  5
136
100
AcDbEntity
  8
0
 62
256
370
-1
 48
1.0
  6
BYLAYER
100
AcDbCircle
 10
64.4112748586041022
 20
33.0738448586040619
 30
0.0
 40
0.4989060605699698
100
AcDbArc
 50
179.8742307714702235
 51
270.1257692285277585
  0
LWPOLYLINE
  5
137
100
AcDbEntity
  8
0
 62
256
370
-1
 48
1.0
  6
BYLAYER
100
AcDbPolyline
 90
2
 70
128
 10
63.9123700000000099
 20
33.074939999999998
 10
63.9123700000000099
 20
46.074939999999998
  0
ARC
  5
138
100
AcDbEntity
  8
0
 62
256
370
-1
 48
1.0
  6
BYLAYER
100
AcDbCircle
 10
64.411274858604088
 20
46.076035141395927
 30
0.0
 40
0.4989060605699485
100
AcDbArc
 50
89.8742307714698256
 51
180.1257692285269059
  0
LWPOLYLINE
  5
139
100
AcDbEntity
  8
0
 62
256
370
-1
 48
1.0
  6
BYLAYER
100
AcDbPolyline
 90
2
 70
128
 10
83.4623599999999897
 20
46.574939999999998
 10
96.4623599999999897
 20
46.574939999999998
  0
ARC
  5
13A
100
AcDbEntity
  8
0
 62
256
370
-1
 48
1.0
  6
BYLAYER
100
AcDbCircle
 10
96.4634551413959258
 20
46.0760351413959484
 30
0.0
 40
0.4989060605699415
100
AcDbArc
 50
359.8742307714672961
 51
90.1257692285309986
  0
LWPOLYLINE
  5
13B
100
AcDbEntity
  8
0
 62
256
370
-1
 48
1.0
  6
BYLAYER
100
AcDbPolyline
 90
2
 70
128
 10
96.9623599999999897
 20
46.074939999999998
 10
96.9623599999999897
 20
33.074939999999998
  0
ARC
  5
13C
100
AcDbEntity
  8
0
 62
256
370
-1
 48
1.0
  6
BYLAYER
100
AcDbCircle
 10
96.4634551413959258
 20
33.0738448586040761
 30
0.0
 40
0.4989060605699556
100
AcDbArc
 50
269.8742307714690014
 51
0.1257692285297907
  0
LWPOLYLINE
  5
13D
100
AcDbEntity
  8
0
 62
256
370
-1
 48
1.0
  6
BYLAYER
100
AcDbPolyline
 90
2
 70
128
 10
96.4623599999999897
 20
32.574939999999998
 10
83.4623599999999897
 20
32.574939999999998
  0
ARC
  5
13E
100
AcDbEntity
  8
0
 62
256
370
-1
 48
1.0
  6
BYLAYER
100
AcDbCircle
 10
83.4612648586040677
 20
33.0738448586040761
 30
0.0
 40
0.4989060605699556
100
AcDbArc
 50
179.8742307714702235
 51
270.1257692285293501
  0
LWPOLYLINE
  5
13F
100
AcDbEntity
  8
0
 62
256
370
-1
 48
1.0
  6
BYLAYER
100
AcDbPolyline
 90
2
 70
128
 10
82.9623599999999897
 20
33.074939999999998
 10
82.9623599999999897
 20
46.074939999999998
  0
ARC
  5
140
100
AcDbEntity
  8
0
 62
256
370
-1
 48
1.0
  6
BYLAYER
100
AcDbCircle
 10
83.4612648586040677
 20
46.076035141395927
 30
0.0
 40
0.4989060605699485
100
AcDbArc
 50
89.8742307714706357
 51
180.1257692285297765
  0
LWPOLYLINE
  5
141
100
AcDbEntity
  8
0
 62
256
370
-1
 48
1.0
  6
BYLAYER
100
AcDbPolyline
 90
2
 70
128
 10
102.5123499999999694
 20
46.574939999999998
 10
115.5123499999999694
 20
46.574939999999998
  0
ARC
  5
142
100
AcDbEntity
  8
0
 62
256
370
-1
 48
1.0
  6
BYLAYER
100
AcDbCircle
 10
115.5134451413958629
 20
46.0760351413958773
 30
0.0
 40
0.4989060605699839
100
AcDbArc
 50
359.8742307714788922
 51
90.1257692285260958
  0
LWPOLYLINE
  5
143
100
AcDbEntity
  8
0
 62
256
370
-1
 48
1.0
  6
BYLAYER
100
AcDbPolyline
 90
2
 70
128
 10
116.0123499999999694
 20
46.074939999999998
 10
116.0123499999999694
 20
33.074939999999998
  0
ARC
  5
144
100
AcDbEntity
  8
0
 62
256
370
-1
 48
1.0
  6
BYLAYER
100
AcDbCircle
 10
115.5134451413958345
 20
33.0738448586041187
 30
0.0
 40
0.4989060605699981
100
AcDbArc
 50
269.8742307714771869
 51
0.1257692285210971
  0
LWPOLYLINE
  5
145
100
AcDbEntity
  8
0
 62
256
370
-1
 48
1.0
  6
BYLAYER
100
AcDbPolyline
 90
2
 70
128
 10
115.5123499999999694
 20
32.574939999999998
 10
102.5123499999999694
 20
32.574939999999998
  0
ARC
  5
146
100
AcDbEntity
  8
0
 62
256
370
-1
 48
1.0
  6
BYLAYER
100
AcDbCircle
 10
102.5112548586041186
 20
33.0738448586041329
 30
0.0
 40
0.4989060605700265
100
AcDbArc
 50
179.8742307714789206
 51
270.1257692285212215
  0
LWPOLYLINE
  5
147
100
AcDbEntity
  8
0
 62
256
370
-1
 48
1.0
  6
BYLAYER
100
AcDbPolyline
 90
2
 70
128
 10
102.0123499999999694
 20
33.074939999999998
 10
102.0123499999999694
 20
46.074939999999998
  0
ARC
  5
148
100
AcDbEntity
  8
0
 62
256
370
-1
 48
1.0
  6
BYLAYER
100
AcDbCircle
 10
102.5112548586041186
 20
46.0760351413958702
 30
0.0
 40
0.4989060605700052
100
AcDbArc
 50
89.8742307714788069
 51
180.1257692285239784
  0
LWPOLYLINE
  5
149
100
AcDbEntity
  8
0
 62
256
370
-1
 48
1.0
  6
BYLAYER
100
AcDbPolyline
 90
2
 70
128
 10
121.5622399999999743
 20
46.574939999999998
 10
134.5622399999999743
 20
46.574939999999998
  0
ARC
  5
14A
100
AcDbEntity
  8
0
 62
256
370
-1
 48
1.0
  6
BYLAYER
100
AcDbCircle
 10
134.5633351413958678
 20
46.0760351413959057
 30
0.0
 40
0.498906060569984
100
AcDbArc
 50
359.8742307714730941
 51
90.1257692285260958
  0
LWPOLYLINE
  5
14B
100
AcDbEntity
  8
0
 62
256
370
-1
 48
1.0
  6
BYLAYER
100
AcDbPolyline
 90
2
 70
128
 10
135.0622399999999743
 20
46.074939999999998
 10
135.0622399999999743
 20
33.074939999999998
  0
ARC
  5
14C
100
AcDbEntity
  8
0
 62
256
370
-1
 48
1.0
  6
BYLAYER
100
AcDbCircle
 10
134.5633351413958962
 20
33.0738448586040761
 30
0.0
 40
0.4989060605699556
100
AcDbArc
 50
269.874230771470593
 51
0.1257692285297907
  0
LWPOLYLINE
  5
14D
100
AcDbEntity
  8
0
 62
256
370
-1
 48
1.0
  6
BYLAYER
100
AcDbPolyline
 90
2
 70
128
 10
134.5622399999999743
 20
32.574939999999998
 10
121.5622399999999743
 20
32.574939999999998
  0
ARC
  5
14E
100
AcDbEntity
  8
0
 62
256
370
-1
 48
1.0
  6
BYLAYER
100
AcDbCircle
 10
121.561144858604095
 20
33.0738448586041187
 30
0.0
 40
0.4989060605699981
100
AcDbArc
 50
179.8742307714789206
 51
270.1257692285244616
  0
LWPOLYLINE
  5
14F
100
AcDbEntity
  8
0
 62
256
370
-1
 48
1.0
  6
BYLAYER
100
AcDbPolyline
 90
2
 70
128
 10
121.0622399999999743
 20
33.074939999999998
 10
121.0622399999999743
 20
46.074939999999998
  0
ARC
  5
150
100
AcDbEntity
  8
0
 62
256
370
-1
 48
1.0
  6
BYLAYER
100
AcDbCircle
 10
121.5611448586041234
 20
46.0760351413958702
 30
0.0
 40
0.4989060605700052
100
AcDbArc
 50
89.8742307714788069
 51
180.1257692285239784
  0
LWPOLYLINE
  5
151
100
AcDbEntity
  8
0
 62
256
370
-1
 48
1.0
  6
BYLAYER
100
AcDbPolyline
 90
2
 70
128
 10
140.6122299999999541
 20
46.574939999999998
 10
153.6122299999999541
 20
46.574939999999998
  0
ARC
  5
152
100
AcDbEntity
  8
0
 62
256
370
-1
 48
1.0
  6
BYLAYER
100
AcDbCircle
 10
153.613325141395876
 20
46.0760351413959413
 30
0.0
 40
0.4989060605699556
100
AcDbArc
 50
359.8742307714701951
 51
90.1257692285293786
  0
LWPOLYLINE
  5
153
100
AcDbEntity
  8
0
 62
256
370
-1
 48
1.0
  6
BYLAYER
100
AcDbPolyline
 90
2
 70
128
 10
154.1122299999999541
 20
46.074939999999998
 10
154.1122299999999541
 20
33.074939999999998
  0
ARC
  5
154
100
AcDbEntity
  8
0
 62
256
370
-1
 48
1.0
  6
BYLAYER
100
AcDbCircle
 10
153.613325141395876
 20
33.0738448586040761
 30
0.0
 40
0.4989060605699556
100
AcDbArc
 50
269.874230771470593
 51
0.1257692285297907
  0
LWPOLYLINE
  5
155
100
AcDbEntity
  8
0
 62
256
370
-1
 48
1.0
  6
BYLAYER
100
AcDbPolyline
 90
2
 70
128
 10
153.6122299999999541
 20
32.574939999999998
 10
140.6122299999999541
 20
32.574939999999998
  0
ARC
  5
156
100
AcDbEntity
  8
0
 62
256
370
-1
 48
1.0
  6
BYLAYER
100
AcDbCircle
 10
140.6111348586040606
 20
33.0738448586040761
 30
0.0
 40
0.498906060569984
100
AcDbArc
 50
179.8742307714731226
 51
270.1257692285261101
  0
LWPOLYLINE
  5
157
100
AcDbEntity
  8
0
 62
256
370
-1
 48
1.0
  6
BYLAYER
100
AcDbPolyline
 90
2
 70
128
 10
140.1122299999999541
 20
33.074939999999998
 10
140.1122299999999541
 20
46.074939999999998
  0
ARC
  5
158
100
AcDbEntity
  8
0
 62
256
370
-1
 48
1.0
  6
BYLAYER
100
AcDbCircle
 10
140.6111348586040322
 20
46.076035141395927
 30
0.0
 40
0.4989060605699485
100
AcDbArc
 50
89.8742307714706357
 51
180.1257692285297765
  0
LWPOLYLINE
  5
159
100
AcDbEntity
  8
0
 62
256
370
-1
 48
1.0
  6
BYLAYER
100
AcDbPolyline
 90
2
 70
128
 10
159.6621599999999717
 20
46.574939999999998
 10
172.6621599999999717
 20
46.574939999999998
  0
ARC
  5
15A
100
AcDbEntity
  8
0
 62
256
370
-1
 48
1.0
  6
BYLAYER
100
AcDbCircle
 10
172.6632551413958936
 20
46.076035141395927
 30
0.0
 40
0.4989060605699556
100
AcDbArc
 50
359.8742307714701951
 51
90.1257692285293786
  0
LWPOLYLINE
  5
15B
100
AcDbEntity
  8
0
 62
256
370
-1
 48
1.0
  6
BYLAYER
100
AcDbPolyline
 90
2
 70
128
 10
173.1621599999999717
 20
46.074939999999998
 10
173.1621599999999717
 20
33.074939999999998
  0
ARC
  5
15C
100
AcDbEntity
  8
0
 62
256
370
-1
 48
1.0
  6
BYLAYER
100
AcDbCircle
 10
172.663255141395922
 20
33.0738448586040619
 30
0.0
 40
0.4989060605699415
100
AcDbArc
 50
269.874230771467353
 51
0.1257692285297907
  0
LWPOLYLINE
  5
15D
100
AcDbEntity
  8
0
 62
256
370
-1
 48
1.0
  6
BYLAYER
100
AcDbPolyline
 90
2
 70
128
 10
172.6621599999999717
 20
32.574939999999998
 10
159.6621599999999717
 20
32.574939999999998
  0
ARC
  5
15E
100
AcDbEntity
  8
0
 62
256
370
-1
 48
1.0
  6
BYLAYER
100
AcDbCircle
 10
159.6610648586040782
 20
33.0738448586040619
 30
0.0
 40
0.498906060569984
100
AcDbArc
 50
179.8742307714702235
 51
270.1257692285261101
  0
LWPOLYLINE
  5
15F
100
AcDbEntity
  8
0
 62
256
370
-1
 48
1.0
  6
BYLAYER
100
AcDbPolyline
 90
2
 70
128
 10
159.1621599999999717
 20
33.074939999999998
 10
159.1621599999999717
 20
46.074939999999998
  0
ARC
  5
160
100
AcDbEntity
  8
0
 62
256
370
-1
 48
1.0
  6
BYLAYER
100
AcDbCircle
 10
159.6610648586040497
 20
46.076035141395927
 30
0.0
 40
0.4989060605699485
100
AcDbArc
 50
89.8742307714706357
 51
180.1257692285297765
  0
LWPOLYLINE
  5
161
100
AcDbEntity
  8
0
 62
256
370
-1
 48
1.0
  6
BYLAYER
100
AcDbPolyline
 90
2
 70
128
 10
178.7121499999999514
 20
46.574939999999998
 10
191.7121499999999514
 20
46.574939999999998
  0
ARC
  5
162
100
AcDbEntity
  8
0
 62
256
370
-1
 48
1.0
  6
BYLAYER
100
AcDbCircle
 10
191.7132451413959018
 20
46.076035141395927
 30
0.0
 40
0.4989060605699272
100
AcDbArc
 50
359.8742307714701951
 51
90.1257692285326328
  0
LWPOLYLINE
  5
163
100
AcDbEntity
  8
0
 62
256
370
-1
 48
1.0
  6
BYLAYER
100
AcDbPolyline
 90
2
 70
128
 10
192.2121499999999514
 20
46.074939999999998
 10
192.2121499999999514
 20
33.074939999999998
  0
ARC
  5
164
100
AcDbEntity
  8
0
 62
256
370
-1
 48
1.0
  6
BYLAYER
100
AcDbCircle
 10
191.7132451413958734
 20
33.0738448586040903
 30
0.0
 40
0.4989060605699698
100
AcDbArc
 50
269.8742307714706499
 51
0.1257692285268929
  0
LWPOLYLINE
  5
165
100
AcDbEntity
  8
0
 62
256
370
-1
 48
1.0
  6
BYLAYER
100
AcDbPolyline
 90
2
 70
128
 10
191.7121499999999514
 20
32.574939999999998
 10
178.7121499999999514
 20
32.574939999999998
  0
ARC
  5
166
100
AcDbEntity
  8
0
 62
256
370
-1
 48
1.0
  6
BYLAYER
100
AcDbCircle
 10
178.7110548586040295
 20
33.0738448586040619
 30
0.0
 40
0.4989060605699556
100
AcDbArc
 50
179.8742307714702235
 51
270.1257692285293501
  0
LWPOLYLINE
  5
167
100
AcDbEntity
  8
0
 62
256
370
-1
 48
1.0
  6
BYLAYER
100
AcDbPolyline
 90
2
 70
128
 10
178.2121499999999514
 20
33.074939999999998
 10
178.2121499999999514
 20
46.074939999999998
  0
ARC
  5
168
100
AcDbEntity
  8
0
 62
256
370
-1
 48
1.0
  6
BYLAYER
100
AcDbCircle
 10
178.7110548586040011
 20
46.076035141395927
 30
0.0
 40
0.4989060605699485
100
AcDbArc
 50
89.8742307714673672
 51
180.1257692285297765
  0
LWPOLYLINE
  5
169
100
AcDbEntity
  8
0
 62
256
370
-1
 48
1.0
  6
BYLAYER
100
AcDbPolyline
 90
2
 70
128
 10
197.7620999999999754
 20
46.574939999999998
 10
210.7620999999999754
 20
46.574939999999998
  0
ARC
  5
16A
100
AcDbEntity
  8
0
 62
256
370
-1
 48
1.0
  6
BYLAYER
100
AcDbCircle
 10
210.7631951413958973
 20
46.076035141395927
 30
0.0
 40
0.4989060605699556
100
AcDbArc
 50
359.8742307714701951
 51
90.1257692285293786
  0
LWPOLYLINE
  5
16B
100
AcDbEntity
  8
0
 62
256
370
-1
 48
1.0
  6
BYLAYER
100
AcDbPolyline
 90
2
 70
128
 10
211.2620999999999754
 20
46.074939999999998
 10
211.2620999999999754
 20
33.074939999999998
  0
ARC
  5
16C
100
AcDbEntity
  8
0
 62
256
370
-1
 48
1.0
  6
BYLAYER
100
AcDbCircle
 10
210.7631951413958973
 20
33.0738448586040903
 30
0.0
 40
0.4989060605699698
100
AcDbArc
 50
269.8742307714706499
 51
0.1257692285268929
  0
LWPOLYLINE
  5
16D
100
AcDbEntity
  8
0
 62
256
370
-1
 48
1.0
  6
BYLAYER
100
AcDbPolyline
 90
2
 70
128
 10
210.7620999999999754
 20
32.574939999999998
 10
197.7620999999999754
 20
32.574939999999998
  0
ARC
  5
16E
100
AcDbEntity
  8
0
 62
256
370
-1
 48
1.0
  6
BYLAYER
100
AcDbCircle
 10
197.7610048586041103
 20
33.0738448586040903
 30
0.0
 40
0.4989060605700124
100
AcDbArc
 50
179.8742307714731226
 51
270.1257692285228131
  0
LWPOLYLINE
  5
16F
100
AcDbEntity
  8
0
 62
256
370
-1
 48
1.0
  6
BYLAYER
100
AcDbPolyline
 90
2
 70
128
 10
197.2620999999999754
 20
33.074939999999998
 10
197.2620999999999754
 20
46.074939999999998
  0
ARC
  5
170
100
AcDbEntity
  8
0
 62
256
370
-1
 48
1.0
  6
BYLAYER
100
AcDbCircle
 10
197.7610048586040534
 20
46.076035141395927
 30
0.0
 40
0.4989060605699485
100
AcDbArc
 50
89.8742307714706357
 51
180.1257692285297765
  0
LWPOLYLINE
  5
171
100
AcDbEntity
  8
0
 62
256
370
-1
 48
1.0
  6
BYLAYER
100
AcDbPolyline
 90
2
 70
128
 10
216.812059999999974
 20
46.574939999999998
 10
229.812059999999974
 20
46.574939999999998
  0
ARC
  5
172
100
AcDbEntity
  8
0
 62
256
370
-1
 48
1.0
  6
BYLAYER
100
AcDbCircle
 10
229.8131551413958675
 20
46.0760351413959057
 30
0.0
 40
0.498906060569984
100
AcDbArc
 50
359.8742307714730941
 51
90.1257692285260958
  0
LWPOLYLINE
  5
173
100
AcDbEntity
  8
0
 62
256
370
-1
 48
1.0
  6
BYLAYER
100
AcDbPolyline
 90
2
 70
128
 10
230.312059999999974
 20
46.074939999999998
 10
230.312059999999974
 20
33.074939999999998
  0
ARC
  5
174
100
AcDbEntity
  8
0
 62
256
370
-1
 48
1.0
  6
BYLAYER
100
AcDbCircle
 10
229.813155141395896
 20
33.0738448586040903
 30
0.0
 40
0.4989060605699698
100
AcDbArc
 50
269.8742307714706499
 51
0.1257692285268929
  0
LWPOLYLINE
  5
175
100
AcDbEntity
  8
0
 62
256
370
-1
 48
1.0
  6
BYLAYER
100
AcDbPolyline
 90
2
 70
128
 10
229.812059999999974
 20
32.574939999999998
 10
216.812059999999974
 20
32.574939999999998
  0
ARC
  5
176
100
AcDbEntity
  8
0
 62
256
370
-1
 48
1.0
  6
BYLAYER
100
AcDbCircle
 10
216.8109648586041089
 20
33.0738448586040619
 30
0.0
 40
0.4989060605700125
100
AcDbArc
 50
179.8742307714702235
 51
270.1257692285228131
  0
LWPOLYLINE
  5
177
100
AcDbEntity
  8
0
 62
256
370
-1
 48
1.0
  6
BYLAYER
100
AcDbPolyline
 90
2
 70
128
 10
216.312059999999974
 20
33.074939999999998
 10
216.312059999999974
 20
46.074939999999998
  0
ARC
  5
178
100
AcDbEntity
  8
0
 62
256
370
-1
 48
1.0
  6
BYLAYER
100
AcDbCircle
 10
216.8109648586040521
 20
46.076035141395927
 30
0.0
 40
0.4989060605699485
100
AcDbArc
 50
89.8742307714706357
 51
180.1257692285297765
  0
LWPOLYLINE
  5
179
100
AcDbEntity
  8
0
 62
256
370
-1
 48
1.0
  6
BYLAYER
100
AcDbPolyline
 90
2
 70
128
 10
238.2432699999999954
 20
46.574939999999998
 10
251.2432699999999954
 20
46.574939999999998
  0
ARC
  5
17A
100
AcDbEntity
  8
0
 62
256
370
-1
 48
1.0
  6
BYLAYER
100
AcDbCircle
 10
251.2443651413959174
 20
46.0760351413959484
 30
0.0
 40
0.4989060605699557
100
AcDbArc
 50
359.8742307714672961
 51
90.1257692285293786
  0
LWPOLYLINE
  5
17B
100
AcDbEntity
  8
0
 62
256
370
-1
 48
1.0
  6
BYLAYER
100
AcDbPolyline
 90
2
 70
128
 10
251.7432699999999954
 20
46.074939999999998
 10
251.7432699999999954
 20
33.074939999999998
  0
ARC
  5
17C
100
AcDbEntity
  8
0
 62
256
370
-1
 48
1.0
  6
BYLAYER
100
AcDbCircle
 10
251.2443651413958889
 20
33.0738448586040903
 30
0.0
 40
0.4989060605699697
100
AcDbArc
 50
269.8742307714738899
 51
0.1257692285268929
  0
LWPOLYLINE
  5
17D
100
AcDbEntity
  8
0
 62
256
370
-1
 48
1.0
  6
BYLAYER
100
AcDbPolyline
 90
2
 70
128
 10
251.2432699999999954
 20
32.574939999999998
 10
238.2432699999999954
 20
32.574939999999998
  0
ARC
  5
17E
100
AcDbEntity
  8
0
 62
256
370
-1
 48
1.0
  6
BYLAYER
100
AcDbCircle
 10
238.2421748586041303
 20
33.0738448586040619
 30
0.0
 40
0.4989060605700125
100
AcDbArc
 50
179.8742307714702235
 51
270.1257692285228131
  0
LWPOLYLINE
  5
17F
100
AcDbEntity
  8
0
 62
256
370
-1
 48
1.0
  6
BYLAYER
100
AcDbPolyline
 90
2
 70
128
 10
237.7432699999999954
 20
33.074939999999998
 10
237.7432699999999954
 20
46.074939999999998
  0
ARC
  5
180
100
AcDbEntity
  8
0
 62
256
370
-1
 48
1.0
  6
BYLAYER
100
AcDbCircle
 10
238.2421748586040735
 20
46.076035141395927
 30
0.0
 40
0.4989060605699485
100
AcDbArc
 50
89.8742307714706357
 51
180.1257692285297765
  0
LWPOLYLINE
  5
181
100
AcDbEntity
  8
0
 62
256
370
-1
 48
1.0
  6
BYLAYER
100
AcDbPolyline
 90
2
 70
128
 10
235.8620199999999727
 20
27.5249699999999962
 10
248.8620199999999727
 20
27.5249699999999962
  0
ARC
  5
182
100
AcDbEntity
  8
0
 62
256
370
-1
 48
1.0
  6
BYLAYER
100
AcDbCircle
 10
248.8631151413959515
 20
27.0260651413959039
 30
0.0
 40
0.4989060605698987
100
AcDbArc
 50
359.8742307714730941
 51
90.1257692285358871
  0
LWPOLYLINE
  5
183
100
AcDbEntity
  8
0
 62
256
370
-1
 48
1.0
  6
BYLAYER
100
AcDbPolyline
 90
2
 70
128
 10
249.3620199999999727
 20
27.0249699999999962
 10
249.3620199999999727
 20
14.0249699999999962
  0
ARC
  5
184
100
AcDbEntity
  8
0
 62
256
370
-1
 48
1.0
  6
BYLAYER
100
AcDbCircle
 10
248.8631151413959515
 20
14.0238748586040458
 30
0.0
 40
0.4989060605699273
100
AcDbArc
 50
269.874230771464056
 51
0.1257692285326887
  0
LWPOLYLINE
  5
185
100
AcDbEntity
  8
0
 62
256
370
-1
 48
1.0
  6
BYLAYER
100
AcDbPolyline
 90
2
 70
128
 10
248.8620199999999727
 20
13.5249699999999962
 10
235.8620199999999727
 20
13.5249699999999962
  0
ARC
  5
186
100
AcDbEntity
  8
0
 62
256
370
-1
 48
1.0
  6
BYLAYER
100
AcDbCircle
 10
235.8609248586040792
 20
14.0238748586040742
 30
0.0
 40
0.498906060569984
100
AcDbArc
 50
179.8742307714731226
 51
270.1257692285261101
  0
LWPOLYLINE
  5
187
100
AcDbEntity
  8
0
 62
256
370
-1
 48
1.0
  6
BYLAYER
100
AcDbPolyline
 90
2
 70
128
 10
235.3620199999999727
 20
14.0249699999999962
 10
235.3620199999999727
 20
27.0249699999999962
  0
ARC
  5
188
100
AcDbEntity
  8
0
 62
256
370
-1
 48
1.0
  6
BYLAYER
100
AcDbCircle
 10
235.8609248586040792
 20
27.0260651413959039
 30
0.0
 40
0.4989060605699697
100
AcDbArc
 50
89.8742307714739184
 51
180.1257692285269059
  0
ARC
  5
189
100
AcDbEntity
  8
0
 62
256
370
-1
 48
1.0
  6
BYLAYER
100
AcDbCircle
 10
207.2856458707024956
 20
27.0264541550949815
 30
0.0
 40
0.4984275249621701
100
AcDbArc
 50
89.8512356832513177
 51
180.1476177476100418
  0
LWPOLYLINE
  5
18A
100
AcDbEntity
  8
0
 62
256
370
-1
 48
1.0
  6
BYLAYER
100
AcDbPolyline
 90
2
 70
128
 10
206.7872199999999339
 20
27.0251700000000028
 10
206.7872199999999339
 20
14.0249300000000119
  0
ARC
  5
18B
100
AcDbEntity
  8
0
 62
256
370
-1
 48
1.0
  6
BYLAYER
100
AcDbCircle
 10
207.2856458707024956
 20
14.0236458449050332
 30
0.0
 40
0.4984275249621715
100
AcDbArc
 50
179.8523822523899582
 51
270.1487643167486681
  0
LWPOLYLINE
  5
18C
100
AcDbEntity
  8
0
 62
256
370
-1
 48
1.0
  6
BYLAYER
100
AcDbPolyline
 90
4
 70
128
 10
207.2869399999999587
 20
13.5252200000000187
 10
212.0494399999999473
 20
13.5252200000000187
 10
220.2871899999999528
 20
13.5252200000000187
 10
225.0496899999999414
 20
13.5252200000000187
  0
ARC
  5
18D
100
AcDbEntity
  8
0
 62
256
370
-1
 48
1.0
  6
BYLAYER
100
AcDbCircle
 10
225.0509797082880823
 20
14.0236203437303999
 30
0.0
 40
0.4984020124136716
100
AcDbArc
 50
269.8517363045465345
 51
0.1505569025529752
  0
LWPOLYLINE
  5
18E
100
AcDbEntity
  8
0
 62
256
370
-1
 48
1.0
  6
BYLAYER
100
AcDbPolyline
 90
2
 70
128
 10
225.5493799999999283
 20
14.0249300000000119
 10
225.5493799999999283
 20
27.0251700000000028
  0
ARC
  5
18F
100
AcDbEntity
  8
0
 62
256
370
-1
 48
1.0
  6
BYLAYER
100
AcDbCircle
 10
225.0509797082880823
 20
27.0264796562696148
 30
0.0
 40
0.4984020124137047
100
AcDbArc
 50
359.849443097447022
 51
90.1482636954535224
  0
LWPOLYLINE
  5
190
100
AcDbEntity
  8
0
 62
256
370
-1
 48
1.0
  6
BYLAYER
100
AcDbPolyline
 90
4
 70
128
 10
225.0496899999999414
 20
27.524879999999996
 10
220.2871899999999528
 20
27.524879999999996
 10
212.0494399999999473
 20
27.524879999999996
 10
207.2869399999999587
 20
27.524879999999996
  0
ARC
  5
191
100
AcDbEntity
  8
0
 62
256
370
-1
 48
1.0
  6
BYLAYER
100
AcDbCircle
 10
187.5127911500328253
 20
28.5420488499671592
 30
0.0
 40
0.9977036620289738
100
AcDbArc
 50
89.8714279934817029
 51
180.1285720065227167
  0
LWPOLYLINE
  5
192
100
AcDbEntity
  8
0
 62
256
370
-1
 48
1.0
  6
BYLAYER
100
AcDbPolyline
 90
2
 70
128
 10
186.5150899999999865
 20
28.5398099999999886
 10
186.5150899999999865
 20
15.5400899999999922
  0
ARC
  5
193
100
AcDbEntity
  8
0
 62
256
370
-1
 48
1.0
  6
BYLAYER
100
AcDbCircle
 10
187.5127911500328253
 20
15.53785115003285
 30
0.0
 40
0.9977036620290021
100
AcDbArc
 50
179.8714279934801539
 51
270.1285720065183114
  0
LWPOLYLINE
  5
194
100
AcDbEntity
  8
0
 62
256
370
-1
 48
1.0
  6
BYLAYER
100
AcDbPolyline
 90
3
 70
128
 10
187.5150299999999675
 20
14.5401499999999828
 10
187.7372199999999793
 20
14.5401499999999828
 10
187.7372199999999793
 20
14.0249299999999835
  0
ARC
  5
195
100
AcDbEntity
  8
0
 62
256
370
-1
 48
1.0
  6
BYLAYER
100
AcDbCircle
 10
188.2356458707025979
 20
14.0236458449050332
 30
0.0
 40
0.4984275249621998
100
AcDbArc
 50
179.8523822523924593
 51
270.1487643167421879
  0
LWPOLYLINE
  5
196
100
AcDbEntity
  8
0
 62
256
370
-1
 48
1.0
  6
BYLAYER
100
AcDbPolyline
 90
2
 70
128
 10
188.2369400000000041
 20
13.5252199999999903
 10
201.2371899999999982
 20
13.5252199999999903
  0
ARC
  5
197
100
AcDbEntity
  8
0
 62
256
370
-1
 48
1.0
  6
BYLAYER
100
AcDbCircle
 10
201.2384797082881107
 20
14.0236203437303573
 30
0.0
 40
0.4984020124137001
100
AcDbArc
 50
269.8517363045498314
 51
0.150556902555396
  0
LWPOLYLINE
  5
198
100
AcDbEntity
  8
0
 62
256
370
-1
 48
1.0
  6
BYLAYER
100
AcDbPolyline
 90
2
 70
128
 10
201.7368799999999851
 20
14.0249299999999835
 10
201.7368799999999851
 20
27.0251699999999744
  0
ARC
  5
199
100
AcDbEntity
  8
0
 62
256
370
-1
 48
1.0
  6
BYLAYER
100
AcDbCircle
 10
201.2384797082881107
 20
27.0264796562696006
 30
0.0
 40
0.4984020124136904
100
AcDbArc
 50
359.8494430974445777
 51
90.1482636954502397
  0
LWPOLYLINE
  5
19A
100
AcDbEntity
  8
0
 62
256
370
-1
 48
1.0
  6
BYLAYER
100
AcDbPolyline
 90
3
 70
128
 10
201.2371899999999982
 20
27.5248799999999676
 10
193.5146599999999921
 20
27.5248799999999676
 10
193.5146599999999921
 20
28.5398099999999602
  0
ARC
  5
19B
100
AcDbEntity
  8
0
 62
256
370
-1
 48
1.0
  6
BYLAYER
100
AcDbCircle
 10
192.5169482758346362
 20
28.5420382536005235
 30
0.0
 40
0.9977142124131093
100
AcDbArc
 50
359.8720378726263789
 51
90.1273891323331924
  0
LWPOLYLINE
  5
19C
100
AcDbEntity
  8
0
 62
256
370
-1
 48
1.0
  6
BYLAYER
100
AcDbPolyline
 90
2
 70
128
 10
192.5147299999999859
 20
29.5397499999999695
 10
187.5150299999999675
 20
29.539749999999998
  0
LWPOLYLINE
  5
19D
100
AcDbEntity
  8
0
 62
256
370
-1
 48
1.0
  6
BYLAYER
100
AcDbPolyline
 90
2
 70
128
 10
16.7874899999999343
 20
27.5249699999999962
 10
29.7874899999999343
 20
27.5249699999999962
  0
ARC
  5
19E
100
AcDbEntity
  8
0
 62
256
370
-1
 48
1.0
  6
BYLAYER
100
AcDbCircle
 10
29.7885851413958562
 20
27.0260651413959181
 30
0.0
 40
0.4989060605699591
100
AcDbArc
 50
359.8742307714730941
 51
90.1257692285289522
  0
LWPOLYLINE
  5
19F
100
AcDbEntity
  8
0
 62
256
370
-1
 48
1.0
  6
BYLAYER
100
AcDbPolyline
 90
2
 70
128
 10
30.2874899999999343
 20
27.0249699999999962
 10
30.2874899999999343
 20
14.0249699999999962
  0
ARC
  5
1A0
100
AcDbEntity
  8
0
 62
256
370
-1
 48
1.0
  6
BYLAYER
100
AcDbCircle
 10
29.7885851413958562
 20
14.0238748586040742
 30
0.0
 40
0.4989060605699556
100
AcDbArc
 50
269.8742307714714457
 51
0.1257692285297907
  0
LWPOLYLINE
  5
1A1
100
AcDbEntity
  8
0
 62
256
370
-1
 48
1.0
  6
BYLAYER
100
AcDbPolyline
 90
2
 70
128
 10
29.7874899999999343
 20
13.5249699999999962
 10
16.7874899999999343
 20
13.5249699999999962
  0
ARC
  5
1A2
100
AcDbEntity
  8
0
 62
256
370
-1
 48
1.0
  6
BYLAYER
100
AcDbCircle
 10
16.7863948586040266
 20
14.0238748586040884
 30
0.0
 40
0.4989060605699644
100
AcDbArc
 50
179.8742307714731226
 51
270.1257692285283269
  0
LWPOLYLINE
  5
1A3
100
AcDbEntity
  8
0
 62
256
370
-1
 48
1.0
  6
BYLAYER
100
AcDbPolyline
 90
2
 70
128
 10
16.2874899999999343
 20
14.0249699999999962
 10
16.2874899999999343
 20
27.0249699999999962
  0
ARC
  5
1A4
100
AcDbEntity
  8
0
 62
256
370
-1
 48
1.0
  6
BYLAYER
100
AcDbCircle
 10
16.7863948586040266
 20
27.0260651413959181
 30
0.0
 40
0.4989060605699556
100
AcDbArc
 50
89.874230771471872
 51
180.1257692285297765
  0
ARC
  5
1A5
100
AcDbEntity
  8
0
 62
256
370
-1
 48
1.0
  6
BYLAYER
100
AcDbCircle
 10
40.5985758914735868
 20
27.0260352506794703
 30
0.0
 40
0.498846641863917
100
AcDbArc
 50
89.8421745039284048
 51
180.0993797148315139
  0
LWPOLYLINE
  5
1A6
100
AcDbEntity
  8
0
 62
256
370
-1
 48
1.0
  6
BYLAYER
100
AcDbPolyline
 90
2
 70
128
 10
40.0997299999999086
 20
27.0251700000000028
 10
40.0997299999999086
 20
14.0249300000000119
  0
ARC
  5
1A7
100
AcDbEntity
  8
0
 62
256
370
-1
 48
1.0
  6
BYLAYER
100
AcDbCircle
 10
40.5985758914735726
 20
14.0240647493205444
 30
0.0
 40
0.4988466418639102
100
AcDbArc
 50
179.9006202851684861
 51
270.1578254960732011
  0
LWPOLYLINE
  5
1A8
100
AcDbEntity
  8
0
 62
256
370
-1
 48
1.0
  6
BYLAYER
100
AcDbPolyline
 90
4
 70
128
 10
40.5999499999999216
 20
13.5252200000000187
 10
45.3624499999999671
 20
13.5252200000000187
 10
53.5996900000000096
 20
13.5252200000000187
 10
58.3621900000000551
 20
13.5252200000000187
  0
ARC
  5
1A9
100
AcDbEntity
  8
0
 62
256
370
-1
 48
1.0
  6
BYLAYER
100
AcDbCircle
 10
58.363557746874136
 20
14.0240711174654678
 30
0.0
 40
0.4988529925018333
100
AcDbArc
 50
269.8429071837003903
 51
0.0986470350558317
  0
LWPOLYLINE
  5
1AA
100
AcDbEntity
  8
0
 62
256
370
-1
 48
1.0
  6
BYLAYER
100
AcDbPolyline
 90
2
 70
128
 10
58.8624100000000681
 20
14.0249300000000119
 10
58.8624100000000681
 20
27.0251700000000028
  0
ARC
  5
1AB
100
AcDbEntity
  8
0
 62
256
370
-1
 48
1.0
  6
BYLAYER
100
AcDbCircle
 10
58.3635577468741928
 20
27.0260288825346322
 30
0.0
 40
0.4988529925017529
100
AcDbArc
 50
359.9013529649294014
 51
90.1570928163061325
  0
LWPOLYLINE
  5
1AC
100
AcDbEntity
  8
0
 62
256
370
-1
 48
1.0
  6
BYLAYER
100
AcDbPolyline
 90
4
 70
128
 10
58.3621900000000551
 20
27.524879999999996
 10
53.5996900000000096
 20
27.524879999999996
 10
45.3624499999999671
 20
27.524879999999996
 10
40.5999499999999216
 20
27.524879999999996
  0
ARC
  5
1AD
100
AcDbEntity
  8
0
 62
256
370
-1
 48
1.0
  6
BYLAYER
100
AcDbCircle
 10
73.2127911500328707
 20
28.5420488499670313
 30
0.0
 40
0.9977036620290871
100
AcDbArc
 50
89.8714279934849714
 51
180.1285720065141902
  0
LWPOLYLINE
  5
1AE
100
AcDbEntity
  8
0
 62
256
370
-1
 48
1.0
  6
BYLAYER
100
AcDbPolyline
 90
3
 70
128
 10
72.2150899999999183
 20
28.5398099999999886
 10
72.2150899999999183
 20
27.524879999999996
 10
64.4124499999999216
 20
27.524879999999996
  0
ARC
  5
1AF
100
AcDbEntity
  8
0
 62
256
370
-1
 48
1.0
  6
BYLAYER
100
AcDbCircle
 10
64.4115166972321589
 20
27.0255833027677568
 30
0.0
 40
0.4992975695124747
100
AcDbArc
 50
89.8929008591148317
 51
180.1070991408848556
  0
LWPOLYLINE
  5
1B0
100
AcDbEntity
  8
0
 62
256
370
-1
 48
1.0
  6
BYLAYER
100
AcDbPolyline
 90
2
 70
128
 10
63.9122199999999339
 20
27.0246500000000083
 10
63.9122199999999339
 20
14.0249300000000119
  0
ARC
  5
1B1
100
AcDbEntity
  8
0
 62
256
370
-1
 48
1.0
  6
BYLAYER
100
AcDbCircle
 10
64.4115081870414485
 20
14.0239981683134971
 30
0.0
 40
0.4992890565889632
100
AcDbArc
 50
179.8930678468847475
 51
270.1080775532738585
  0
LWPOLYLINE
  5
1B2
100
AcDbEntity
  8
0
 62
256
370
-1
 48
1.0
  6
BYLAYER
100
AcDbPolyline
 90
2
 70
128
 10
64.4124499999999216
 20
13.5247099999999989
 10
77.4121899999998959
 20
13.5247099999999989
  0
ARC
  5
1B3
100
AcDbEntity
  8
0
 62
256
370
-1
 48
1.0
  6
BYLAYER
100
AcDbCircle
 10
77.4131239691487139
 20
14.0239960308512082
 30
0.0
 40
0.4992869043961712
100
AcDbArc
 50
269.8928221005602381
 51
0.1071778994358978
  0
LWPOLYLINE
  5
1B4
100
AcDbEntity
  8
0
 62
256
370
-1
 48
1.0
  6
BYLAYER
100
AcDbPolyline
 90
3
 70
128
 10
77.9124099999999089
 20
14.0249300000000119
 10
77.9124099999999089
 20
14.5401500000000112
 10
78.2152299999999059
 20
14.5401500000000112
  0
ARC
  5
1B5
100
AcDbEntity
  8
0
 62
256
370
-1
 48
1.0
  6
BYLAYER
100
AcDbCircle
 10
78.2174688499669628
 20
15.5378511500329779
 30
0.0
 40
0.9977036620291155
100
AcDbArc
 50
269.8714279934865772
 51
0.1285720065141917
  0
LWPOLYLINE
  5
1B6
100
AcDbEntity
  8
0
 62
256
370
-1
 48
1.0
  6
BYLAYER
100
AcDbPolyline
 90
2
 70
128
 10
79.2151699999999437
 20
15.5400900000000206
 10
79.2151699999999437
 20
28.539810000000017
  0
ARC
  5
1B7
100
AcDbEntity
  8
0
 62
256
370
-1
 48
1.0
  6
BYLAYER
100
AcDbCircle
 10
78.2174688499670339
 20
28.542048849967145
 30
0.0
 40
0.9977036620290162
100
AcDbArc
 50
359.8714279934801539
 51
90.1285720065174871
  0
LWPOLYLINE
  5
1B8
100
AcDbEntity
  8
0
 62
256
370
-1
 48
1.0
  6
BYLAYER
100
AcDbPolyline
 90
2
 70
128
 10
78.2152299999999059
 20
29.5397500000000264
 10
73.2150299999999561
 20
29.539749999999998
  0
ARC
  5
1B9
100
AcDbEntity
  8
0
 62
256
370
-1
 48
1.0
  6
BYLAYER
100
AcDbCircle
 10
92.2312638844645676
 20
28.5420361155353532
 30
0.0
 40
0.9977163679342478
100
AcDbArc
 50
89.8721609318901216
 51
180.1278390681092958
  0
LWPOLYLINE
  5
1BA
100
AcDbEntity
  8
0
 62
256
370
-1
 48
1.0
  6
BYLAYER
100
AcDbPolyline
 90
2
 70
128
 10
91.2335499999999229
 20
28.5398099999999886
 10
91.2335499999999229
 20
15.5400899999999922
  0
ARC
  5
1BB
100
AcDbEntity
  8
0
 62
256
370
-1
 48
1.0
  6
BYLAYER
100
AcDbCircle
 10
92.2312638844645676
 20
15.5378638844646559
 30
0.0
 40
0.9977163679342762
100
AcDbArc
 50
179.872160931893518
 51
270.1278390681098927
  0
LWPOLYLINE
  5
1BC
100
AcDbEntity
  8
0
 62
256
370
-1
 48
1.0
  6
BYLAYER
100
AcDbPolyline
 90
2
 70
128
 10
92.2334899999999607
 20
14.5401499999999828
 10
96.8605999999999767
 20
14.5401499999999828
  0
ARC
  5
1BD
100
AcDbEntity
  8
0
 62
256
370
-1
 48
1.0
  6
BYLAYER
100
AcDbCircle
 10
97.0321040396323582
 20
15.5130174760780619
 30
0.0
 40
0.987868797776687
100
AcDbArc
 50
260.0022130493211989
 51
270.0937247440424471
  0
LWPOLYLINE
  5
1BE
100
AcDbEntity
  8
0
 62
256
370
-1
 48
1.0
  6
BYLAYER
100
AcDbPolyline
 90
3
 70
128
 10
97.0337200000000166
 20
14.5251499999999965
 10
99.6309700000000475
 20
14.5251499999999965
 10
99.6309700000000475
 20
14.0249200000000087
  0
ARC
  5
1BF
100
AcDbEntity
  8
0
 62
256
370
-1
 48
1.0
  6
BYLAYER
100
AcDbCircle
 10
100.1298944074702888
 20
14.0241333194229725
 30
0.0
 40
0.4989250276703662
100
AcDbArc
 50
179.909658780247895
 51
270.1499324005481526
  0
LWPOLYLINE
  5
1C0
100
AcDbEntity
  8
0
 62
256
370
-1
 48
1.0
  6
BYLAYER
100
AcDbPolyline
 90
4
 70
128
 10
100.1312000000000353
 20
13.5252100000000155
 10
104.8937000000000239
 20
13.5252100000000155
 10
113.1309400000000096
 20
13.5252100000000155
 10
117.8934399999999982
 20
13.5252100000000155
  0
ARC
  5
1C1
100
AcDbEntity
  8
0
 62
256
370
-1
 48
1.0
  6
BYLAYER
100
AcDbCircle
 10
117.8948077468741076
 20
14.0240611174654077
 30
0.0
 40
0.4988529925017979
100
AcDbArc
 50
269.8429071836963544
 51
0.098647035063221
  0
LWPOLYLINE
  5
1C2
100
AcDbEntity
  8
0
 62
256
370
-1
 48
1.0
  6
BYLAYER
100
AcDbPolyline
 90
3
 70
128
 10
118.3936600000000112
 20
14.0249200000000087
 10
118.3936600000000112
 20
14.5401400000000081
 10
120.6606899999999882
 20
14.5401400000000081
  0
ARC
  5
1C3
100
AcDbEntity
  8
0
 62
256
370
-1
 48
1.0
  6
BYLAYER
100
AcDbCircle
 10
120.8322013133756059
 20
15.5130914247736627
 30
0.0
 40
0.9879527344893189
100
AcDbArc
 50
260.002642849539086
 51
270.0932949438242758
  0
LWPOLYLINE
  5
1C4
100
AcDbEntity
  8
0
 62
256
370
-1
 48
1.0
  6
BYLAYER
100
AcDbPolyline
 90
3
 70
128
 10
120.8338099999999713
 20
14.5251400000000217
 10
125.8247199999999566
 20
14.5251400000000217
 10
125.8247199999999566
 20
14.024910000000034
  0
ARC
  5
1C5
100
AcDbEntity
  8
0
 62
256
370
-1
 48
1.0
  6
BYLAYER
100
AcDbCircle
 10
126.3236125927319478
 20
14.0240914715782168
 30
0.0
 40
0.4988932642075242
100
AcDbArc
 50
179.9059954335168641
 51
270.1535957472750624
  0
LWPOLYLINE
  5
1C6
100
AcDbEntity
  8
0
 62
256
370
-1
 48
1.0
  6
BYLAYER
100
AcDbPolyline
 90
2
 70
128
 10
126.3249499999999443
 20
13.5252000000000407
 10
139.3246899999999187
 20
13.5252000000000407
  0
ARC
  5
1C7
100
AcDbEntity
  8
0
 62
256
370
-1
 48
1.0
  6
BYLAYER
100
AcDbCircle
 10
139.3260577468740564
 20
14.0240511174654614
 30
0.0
 40
0.4988529925017695
100
AcDbArc
 50
269.8429071836931143
 51
0.0986470350595263
  0
LWPOLYLINE
  5
1C8
100
AcDbEntity
  8
0
 62
256
370
-1
 48
1.0
  6
BYLAYER
100
AcDbPolyline
 90
2
 70
128
 10
139.8249099999999316
 20
14.024910000000034
 10
139.8249099999999316
 20
14.5416800000000421
  0
ARC
  5
1C9
100
AcDbEntity
  8
0
 62
256
370
-1
 48
1.0
  6
BYLAYER
100
AcDbCircle
 10
139.9234837211408262
 20
15.8981725848747146
 30
0.0
 40
1.3600694509176845
100
AcDbArc
 50
265.8437309724506576
 51
267.2407156556703285
  0
LWPOLYLINE
  5
1CA
100
AcDbEntity
  8
0
 62
256
370
-1
 48
1.0
  6
BYLAYER
100
AcDbPolyline
 90
2
 70
128
 10
139.858009999999922
 20
14.5396800000000326
 10
144.4856199999999262
 20
14.5396800000000326
  0
ARC
  5
1CB
100
AcDbEntity
  8
0
 62
256
370
-1
 48
1.0
  6
BYLAYER
100
AcDbCircle
 10
144.6571240396323503
 20
15.5125474760788364
 30
0.0
 40
0.9878687977774117
100
AcDbArc
 50
260.0022130493260306
 51
270.0937247440366491
  0
LWPOLYLINE
  5
1CC
100
AcDbEntity
  8
0
 62
256
370
-1
 48
1.0
  6
BYLAYER
100
AcDbPolyline
 90
3
 70
128
 10
144.6587399999999093
 20
14.5246800000000462
 10
147.2559899999998834
 20
14.5246800000000462
 10
147.2559899999998834
 20
14.0244500000000585
  0
ARC
  5
1CD
100
AcDbEntity
  8
0
 62
256
370
-1
 48
1.0
  6
BYLAYER
100
AcDbCircle
 10
147.7548613390538037
 20
14.0236102228724349
 30
0.0
 40
0.4988720458745661
100
AcDbArc
 50
179.903551004176478
 51
270.154894777065067
  0
LWPOLYLINE
  5
1CE
100
AcDbEntity
  8
0
 62
256
370
-1
 48
1.0
  6
BYLAYER
100
AcDbPolyline
 90
3
 70
128
 10
147.7562099999998964
 20
13.5247400000000653
 10
160.7559599999999023
 20
13.5247400000000653
 10
165.5184599999998909
 20
13.5247400000000653
  0
ARC
  5
1CF
100
AcDbEntity
  8
0
 62
256
370
-1
 48
1.0
  6
BYLAYER
100
AcDbCircle
 10
165.5198277468740002
 20
14.0235911174654859
 30
0.0
 40
0.4988529925017979
100
AcDbArc
 50
269.8429071836963544
 51
0.0986470350595263
  0
LWPOLYLINE
  5
1D0
100
AcDbEntity
  8
0
 62
256
370
-1
 48
1.0
  6
BYLAYER
100
AcDbPolyline
 90
3
 70
128
 10
166.0186799999999039
 20
14.0244500000000585
 10
166.0186799999999039
 20
14.5396600000000547
 10
168.2857099999998809
 20
14.5396600000000547
  0
ARC
  5
1D1
100
AcDbEntity
  8
0
 62
256
370
-1
 48
1.0
  6
BYLAYER
100
AcDbCircle
 10
168.4572213133755554
 20
15.5126114247739508
 30
0.0
 40
0.9879527344895603
100
AcDbArc
 50
260.0026428495382902
 51
270.0932949438209789
  0
LWPOLYLINE
  5
1D2
100
AcDbEntity
  8
0
 62
256
370
-1
 48
1.0
  6
BYLAYER
100
AcDbPolyline
 90
2
 70
128
 10
168.458829999999864
 20
14.5246600000000683
 10
173.4585299999998824
 20
14.5246600000000683
  0
ARC
  5
1D3
100
AcDbEntity
  8
0
 62
256
370
-1
 48
1.0
  6
BYLAYER
100
AcDbCircle
 10
173.460770988055998
 20
15.5223589895824858
 30
0.0
 40
0.9977015063841733
100
AcDbArc
 50
269.8713049296811164
 51
0.1281220752821721
  0
LWPOLYLINE
  5
1D4
100
AcDbEntity
  8
0
 62
256
370
-1
 48
1.0
  6
BYLAYER
100
AcDbPolyline
 90
2
 70
128
 10
174.4584699999998634
 20
15.5245900000000745
 10
174.4584699999998634
 20
28.5248300000000086
  0
ARC
  5
1D5
100
AcDbEntity
  8
0
 62
256
370
-1
 48
1.0
  6
BYLAYER
100
AcDbCircle
 10
173.4607688499670246
 20
28.5270688499671792
 30
0.0
 40
0.9977036620289736
100
AcDbArc
 50
359.8714279934773117
 51
90.1285720065183114
  0
LWPOLYLINE
  5
1D6
100
AcDbEntity
  8
0
 62
256
370
-1
 48
1.0
  6
BYLAYER
100
AcDbPolyline
 90
2
 70
128
 10
173.4585299999998824
 20
29.5247700000000179
 10
168.9073999999998819
 20
29.5247700000000179
  0
ARC
  5
1D7
100
AcDbEntity
  8
0
 62
256
370
-1
 48
1.0
  6
BYLAYER
100
AcDbCircle
 10
168.7358986576533937
 20
28.5519325784248537
 30
0.0
 40
0.9878387313948002
100
AcDbArc
 50
80.002064482846265
 51
90.0933040303401924
  0
LWPOLYLINE
  5
1D8
100
AcDbEntity
  8
0
 62
256
370
-1
 48
1.0
  6
BYLAYER
100
AcDbPolyline
 90
2
 70
128
 10
168.7342899999998735
 20
29.5397700000000043
 10
163.7340599999998858
 20
29.5397700000000043
  0
ARC
  5
1D9
100
AcDbEntity
  8
0
 62
256
370
-1
 48
1.0
  6
BYLAYER
100
AcDbCircle
 10
163.7318338844645211
 20
28.542056115535388
 30
0.0
 40
0.9977163679342194
100
AcDbArc
 50
89.8721609318917416
 51
180.1278390681092958
  0
LWPOLYLINE
  5
1DA
100
AcDbEntity
  8
0
 62
256
370
-1
 48
1.0
  6
BYLAYER
100
AcDbPolyline
 90
5
 70
128
 10
162.7341199999999048
 20
28.5398299999999949
 10
162.7341199999999048
 20
27.5249100000000055
 10
160.7559599999999023
 20
27.5249100000000055
 10
150.658909999999878
 20
27.5249100000000055
 10
150.658909999999878
 20
28.5248500000000149
  0
ARC
  5
1DB
100
AcDbEntity
  8
0
 62
256
370
-1
 48
1.0
  6
BYLAYER
100
AcDbCircle
 10
149.661189748197728
 20
28.5270697481979028
 30
0.0
 40
0.9977227210694115
100
AcDbArc
 50
359.8725274010964768
 51
90.1274725989025285
  0
LWPOLYLINE
  5
1DC
100
AcDbEntity
  8
0
 62
256
370
-1
 48
1.0
  6
BYLAYER
100
AcDbPolyline
 90
2
 70
128
 10
149.658969999999897
 20
29.5247900000000243
 10
145.0313199999998801
 20
29.5247900000000243
  0
ARC
  5
1DD
100
AcDbEntity
  8
0
 62
256
370
-1
 48
1.0
  6
BYLAYER
100
AcDbCircle
 10
144.8598404761131633
 20
28.5522043779971142
 30
0.0
 40
0.9875869679371047
100
AcDbArc
 50
80.0007748770118354
 51
90.0945936361661239
  0
LWPOLYLINE
  5
1DE
100
AcDbEntity
  8
0
 62
256
370
-1
 48
1.0
  6
BYLAYER
100
AcDbPolyline
 90
2
 70
128
 10
144.8582099999998718
 20
29.5397900000000107
 10
139.8580099999998652
 20
29.5397900000000107
  0
ARC
  5
1DF
100
AcDbEntity
  8
0
 62
256
370
-1
 48
1.0
  6
BYLAYER
100
AcDbCircle
 10
139.855764782938536
 20
28.5420952170613589
 30
0.0
 40
0.9976973092590037
100
AcDbArc
 50
89.8710615242808899
 51
180.1289384757189396
  0
LWPOLYLINE
  5
1E0
100
AcDbEntity
  8
0
 62
256
370
-1
 48
1.0
  6
BYLAYER
100
AcDbPolyline
 90
4
 70
128
 10
138.8580699999998842
 20
28.5398500000000013
 10
138.8580699999998842
 20
27.5249300000000119
 10
126.8334699999998634
 20
27.5249300000000119
 10
126.8334699999998634
 20
28.5248700000000213
  0
ARC
  5
1E1
100
AcDbEntity
  8
0
 62
256
370
-1
 48
1.0
  6
BYLAYER
100
AcDbCircle
 10
125.8357773551337857
 20
28.5271073775590622
 30
0.0
 40
0.9976951535806057
100
AcDbArc
 50
359.8715114548787142
 51
90.1290615401593698
  0
LWPOLYLINE
  5
1E2
100
AcDbEntity
  8
0
 62
256
370
-1
 48
1.0
  6
BYLAYER
100
AcDbPolyline
 90
2
 70
128
 10
125.8335299999998824
 20
29.5248000000000275
 10
121.2823999999998819
 20
29.5248000000000275
  0
ARC
  5
1E3
100
AcDbEntity
  8
0
 62
256
370
-1
 48
1.0
  6
BYLAYER
100
AcDbCircle
 10
121.1108986576533084
 20
28.5519625784247921
 30
0.0
 40
0.987838731394871
100
AcDbArc
 50
80.0020644828421155
 51
90.0933040303352328
  0
LWPOLYLINE
  5
1E4
100
AcDbEntity
  8
0
 62
256
370
-1
 48
1.0
  6
BYLAYER
100
AcDbPolyline
 90
2
 70
128
 10
121.1092899999998735
 20
29.5398000000000138
 10
116.1090599999998858
 20
29.5398000000000138
  0
ARC
  5
1E5
100
AcDbEntity
  8
0
 62
256
370
-1
 48
1.0
  6
BYLAYER
100
AcDbCircle
 10
116.1068338844644785
 20
28.5420861155354402
 30
0.0
 40
0.9977163679341768
100
AcDbArc
 50
89.8721609318892831
 51
180.127839068112138
  0
LWPOLYLINE
  5
1E6
100
AcDbEntity
  8
0
 62
256
370
-1
 48
1.0
  6
BYLAYER
100
AcDbPolyline
 90
6
 70
128
 10
115.1091199999999048
 20
28.5398600000000044
 10
115.1091199999999048
 20
27.5249400000000151
 10
113.1309599999999023
 20
27.5249400000000151
 10
104.8937199999999166
 20
27.5249400000000151
 10
103.0339099999999348
 20
27.5249400000000151
 10
103.0339099999999348
 20
28.5248800000000244
  0
ARC
  5
1E7
100
AcDbEntity
  8
0
 62
256
370
-1
 48
1.0
  6
BYLAYER
100
AcDbCircle
 10
102.0361982536904293
 20
28.5270982759246294
 30
0.0
 40
0.997714212323358
100
AcDbArc
 50
359.8726108624883295
 51
90.1279621325482054
  0
LWPOLYLINE
  5
1E8
100
AcDbEntity
  8
0
 62
256
370
-1
 48
1.0
  6
BYLAYER
100
AcDbPolyline
 90
2
 70
128
 10
102.0339699999999539
 20
29.5248100000000306
 10
97.406319999999937
 20
29.5248100000000306
  0
ARC
  5
1E9
100
AcDbEntity
  8
0
 62
256
370
-1
 48
1.0
  6
BYLAYER
100
AcDbCircle
 10
97.2348332042061969
 20
28.5521404553421831
 30
0.0
 40
0.9876708784997703
100
AcDbArc
 50
80.0012047647080777
 51
90.0941637484660873
  0
LWPOLYLINE
  5
1EA
100
AcDbEntity
  8
0
 62
256
370
-1
 48
1.0
  6
BYLAYER
100
AcDbPolyline
 90
2
 70
128
 10
97.2332099999999855
 20
29.539810000000017
 10
92.2334899999999607
 20
29.539749999999998
  0
LWPOLYLINE
  5
1EB
100
AcDbEntity
  8
0
 62
256
370
-1
 48
1.0
  6
BYLAYER
100
AcDbPolyline
 90
9
 70
128
 10
4.0
 20
97.1998509999999953
 10
261.6495099999999638
 20
97.1998509999999953
 42
-0.414213562373095
 10
264.6495099999999638
 20
94.1998509999999953
 10
264.6495099999999638
 20
4.0
 42
-0.414213562373095
 10
261.6495099999999638
 20
1.0
 10
4.0
 20
1.0
 42
-0.414213562373095
 10
1.0
 20
4.0
 10
1.0
 20
94.1998509999999953
 42
-0.414213562373095
 10
4.0
 20
97.1998509999999953
  0
LWPOLYLINE
  5
1EC
100
AcDbEntity
  8
0
 62
256
370
-1
 48
1.0
  6
BYLAYER
100
AcDbPolyline
 90
5
 70
128
 10
258.2494899999999802
 20
91.2001700000000142
 42
-0.414213562373095
 10
256.6494899999999575
 20
89.6001699999999914
 42
-0.414213562373095
 10
255.0494899999999348
 20
91.2001700000000142
 42
-0.414214294595925
 10
256.6494899999999575
 20
92.8001739999999984
 42
-0.4142142946007739
 10
258.2494899999999802
 20
91.2001700000353424
  0
LWPOLYLINE
  5
1ED
100
AcDbEntity
  8
0
 62
256
370
-1
 48
1.0
  6
BYLAYER
100
AcDbPolyline
 90
5
 70
128
 10
154.3777599999999666
 20
91.695830000000015
 42
-0.414213562373095
 10
152.7777599999999438
 20
90.0958299999999923
 42
-0.414213562373095
 10
151.1777599999999211
 20
91.695830000000015
 42
-0.4142141116015032
 10
152.7777599999998586
 20
93.2958330000000302
 42
-0.4142141115490615
 10
154.3777599999999666
 20
91.6958299999969313
  0
LWPOLYLINE
  5
1EE
100
AcDbEntity
  8
0
 62
256
370
-1
 48
1.0
  6
BYLAYER
100
AcDbPolyline
 90
5
 70
128
 10
10.6003200000001243
 20
91.2001700000000142
 42
-0.4142135623731159
 10
9.0003199999999879
 20
89.6001699999999914
 42
-0.4142135623731145
 10
7.4003199999998657
 20
91.2001700000000142
 42
-0.4142142945959423
 10
9.0003199999999879
 20
92.8001739999999415
 42
-0.414214294613807
 10
10.6003200000001101
 20
91.2001699999642597
  0
LWPOLYLINE
  5
1EF
100
AcDbEntity
  8
0
 62
256
370
-1
 48
1.0
  6
BYLAYER
100
AcDbPolyline
 90
5
 70
128
 10
10.6003200000001243
 20
6.9996300000000247
 42
-0.4142135623731159
 10
9.0003199999999879
 20
5.3996300000000019
 42
-0.4142135623731159
 10
7.4003199999998515
 20
6.9996300000000247
 42
-0.4142135623731211
 10
9.0003199999999879
 20
8.5996299999999906
 42
-0.4142135623731159
 10
10.6003200000001243
 20
6.9996299999999678
  0
LWPOLYLINE
  5
1F0
100
AcDbEntity
  8
0
 62
256
370
-1
 48
1.0
  6
BYLAYER
100
AcDbPolyline
 90
5
 70
128
 10
258.2494899999999802
 20
6.9996300000000247
 42
-0.414213562373095
 10
256.6494899999999575
 20
5.3996300000000019
 42
-0.414213562373095
 10
255.0494899999999348
 20
6.9996300000000247
 42
-0.4142135623731003
 10
256.6494899999999575
 20
8.5996299999999906
 42
-0.414213562373095
 10
258.2494899999999802
 20
6.9996299999999678
  0
LWPOLYLINE
  5
1F1
100
AcDbEntity
  8
0
 62
256
370
-1
 48
1.0
  6
BYLAYER
100
AcDbPolyline
 90
5
 70
128
 10
178.3666799999999739
 20
6.9996300000000247
 42
-0.414213562373095
 10
176.7666799999999512
 20
5.3996300000000019
 42
-0.414213562373095
 10
175.1666799999999284
 20
6.9996300000000247
 42
-0.4142135623731003
 10
176.7666799999999512
 20
8.5996299999999906
 42
-0.414213562373095
 10
178.3666799999999739
 20
6.9996299999999678
  0
LWPOLYLINE
  5
1F2
100
AcDbEntity
  8
0
 62
256
370
-1
 48
1.0
  6
BYLAYER
100
AcDbPolyline
 90
5
 70
128
 10
90.483380000000011
 20
6.9996300000000247
 42
-0.414213562373095
 10
88.8833799999999883
 20
5.3996300000000019
 42
-0.414213562373095
 10
87.2833799999999655
 20
6.9996300000000247
 42
-0.4142135623731003
 10
88.8833799999999883
 20
8.5996299999999906
 42
-0.414213562373095
 10
90.483380000000011
 20
6.9996299999999678
  0
LWPOLYLINE
  5
1F3
100
AcDbEntity
  8
0
 62
256
370
-1
 48
1.0
  6
BYLAYER
100
AcDbPolyline
 90
5
 70
128
 10
114.4717499999999859
 20
91.695830000000015
 42
-0.414213562373095
 10
112.8717499999999632
 20
90.0958299999999923
 42
-0.414213562373095
 10
111.2717499999999404
 20
91.6958300000000008
 42
-0.4142141116015214
 10
112.8717499999999632
 20
93.295833000000016
 42
-0.4142141115490641
 10
114.4717499999999859
 20
91.6958299999969313
  0
LWPOLYLINE
  5
1F4
100
AcDbEntity
  8
0
 62
256
370
-1
 48
1.0
  6
BYLAYER
100
AcDbPolyline
 90
2
 70
128
 10
36.1687200000000075
 20
46.574939999999998
 10
38.1687200000000075
 20
46.574939999999998
  0
ARC
  5
1F5
100
AcDbEntity
  8
0
 62
256
370
-1
 48
1.0
  6
BYLAYER
100
AcDbCircle
 10
38.1698236471962531
 20
46.0760436691696285
 30
0.0
 40
0.4988975515605792
100
AcDbArc
 50
359.8743977043039877
 51
90.1267482227436432
  0
LWPOLYLINE
  5
1F6
100
AcDbEntity
  8
0
 62
256
370
-1
 48
1.0
  6
BYLAYER
100
AcDbPolyline
 90
2
 70
128
 10
38.6687200000000075
 20
46.0749500000000012
 10
38.6687200000000075
 20
33.074939999999998
  0
ARC
  5
1F7
100
AcDbEntity
  8
0
 62
256
370
-1
 48
1.0
  6
BYLAYER
100
AcDbCircle
 10
38.1698151413959295
 20
33.0738448586040903
 30
0.0
 40
0.4989060605699698
100
AcDbArc
 50
269.8742307714714457
 51
0.1257692285268929
  0
LWPOLYLINE
  5
1F8
100
AcDbEntity
  8
0
 62
256
370
-1
 48
1.0
  6
BYLAYER
100
AcDbPolyline
 90
2
 70
128
 10
38.1687200000000075
 20
32.574939999999998
 10
36.1687200000000075
 20
32.574939999999998
  0
ARC
  5
1F9
100
AcDbEntity
  8
0
 62
256
370
-1
 48
1.0
  6
BYLAYER
100
AcDbCircle
 10
36.1676248586040856
 20
33.0738448586040903
 30
0.0
 40
0.4989060605699627
100
AcDbArc
 50
179.8742307714731226
 51
270.1257692285285543
  0
LWPOLYLINE
  5
1FA
100
AcDbEntity
  8
0
 62
256
370
-1
 48
1.0
  6
BYLAYER
100
AcDbPolyline
 90
2
 70
128
 10
35.6687200000000075
 20
33.074939999999998
 10
35.6687200000000075
 20
46.0749500000000012
  0
ARC
  5
1FB
100
AcDbEntity
  8
0
 62
256
370
-1
 48
1.0
  6
BYLAYER
100
AcDbCircle
 10
36.167616352803762
 20
46.0760436691696285
 30
0.0
 40
0.4988975515605777
100
AcDbArc
 50
89.873251777256371
 51
180.1256022956960123
  0
LWPOLYLINE
  5
1FC
100
AcDbEntity
  8
0
 62
256
370
-1
 48
1.0
  6
BYLAYER
100
AcDbPolyline
 90
2
 70
128
 10
13.1687200000000075
 20
46.574939999999998
 10
15.1687200000000075
 20
46.574939999999998
  0
ARC
  5
1FD
100
AcDbEntity
  8
0
 62
256
370
-1
 48
1.0
  6
BYLAYER
100
AcDbCircle
 10
15.1698236471962531
 20
46.0760436691696142
 30
0.0
 40
0.498897551560581
100
AcDbArc
 50
359.8743977043068867
 51
90.12674822274343
  0
LWPOLYLINE
  5
1FE
100
AcDbEntity
  8
0
 62
256
370
-1
 48
1.0
  6
BYLAYER
100
AcDbPolyline
 90
2
 70
128
 10
15.6687200000000075
 20
46.0749500000000012
 10
15.6687200000000075
 20
33.074939999999998
  0
ARC
  5
1FF
100
AcDbEntity
  8
0
 62
256
370
-1
 48
1.0
  6
BYLAYER
100
AcDbCircle
 10
15.1698151413959152
 20
33.0738448586040903
 30
0.0
 40
0.4989060605699698
100
AcDbArc
 50
269.8742307714718436
 51
0.1257692285268929
  0
LWPOLYLINE
  5
200
100
AcDbEntity
  8
0
 62
256
370
-1
 48
1.0
  6
BYLAYER
100
AcDbPolyline
 90
2
 70
128
 10
15.1687200000000075
 20
32.574939999999998
 10
13.1687200000000075
 20
32.574939999999998
  0
ARC
  5
201
100
AcDbEntity
  8
0
 62
256
370
-1
 48
1.0
  6
BYLAYER
100
AcDbCircle
 10
13.1676248586040856
 20
33.0738448586040903
 30
0.0
 40
0.4989060605699591
100
AcDbArc
 50
179.8742307714731226
 51
270.1257692285289522
  0
LWPOLYLINE
  5
202
100
AcDbEntity
  8
0
 62
256
370
-1
 48
1.0
  6
BYLAYER
100
AcDbPolyline
 90
2
 70
128
 10
12.6687200000000075
 20
33.074939999999998
 10
12.6687200000000075
 20
46.0749500000000012
  0
ARC
  5
203
100
AcDbEntity
  8
0
 62
256
370
-1
 48
1.0
  6
BYLAYER
100
AcDbCircle
 10
13.167616352803762
 20
46.0760436691696071
 30
0.0
 40
0.4988975515605991
100
AcDbArc
 50
89.8732517772569821
 51
180.1256022956931417
  0
LWPOLYLINE
  5
204
100
AcDbEntity
  8
0
 62
256
370
-1
 48
1.0
  6
BYLAYER
100
AcDbPolyline
 90
2
 70
128
 10
250.4807899999999563
 20
65.6248999999999967
 10
252.4807899999999563
 20
65.6248999999999967
  0
ARC
  5
205
100
AcDbEntity
  8
0
 62
256
370
-1
 48
1.0
  6
BYLAYER
100
AcDbCircle
 10
252.4818851413959067
 20
65.125995141395947
 30
0.0
 40
0.4989060605699272
100
AcDbArc
 50
359.8742307714701951
 51
90.125769228532647
  0
LWPOLYLINE
  5
206
100
AcDbEntity
  8
0
 62
256
370
-1
 48
1.0
  6
BYLAYER
100
AcDbPolyline
 90
2
 70
128
 10
252.9807899999999563
 20
65.1248999999999967
 10
252.9807899999999563
 20
52.1248999999999967
  0
ARC
  5
207
100
AcDbEntity
  8
0
 62
256
370
-1
 48
1.0
  6
BYLAYER
100
AcDbCircle
 10
252.4818851413958782
 20
52.1238048586040676
 30
0.0
 40
0.4989060605699485
100
AcDbArc
 50
269.874230771470593
 51
0.1257692285297907
  0
LWPOLYLINE
  5
208
100
AcDbEntity
  8
0
 62
256
370
-1
 48
1.0
  6
BYLAYER
100
AcDbPolyline
 90
2
 70
128
 10
252.4807899999999563
 20
51.6248999999999967
 10
250.4807899999999563
 20
51.6248999999999967
  0
ARC
  5
209
100
AcDbEntity
  8
0
 62
256
370
-1
 48
1.0
  6
BYLAYER
100
AcDbCircle
 10
250.479694858604006
 20
52.1238048586040392
 30
0.0
 40
0.4989060605699273
100
AcDbArc
 50
179.8742307714673245
 51
270.125769228532647
  0
LWPOLYLINE
  5
20A
100
AcDbEntity
  8
0
 62
256
370
-1
 48
1.0
  6
BYLAYER
100
AcDbPolyline
 90
2
 70
128
 10
249.9807899999999563
 20
52.1248999999999967
 10
249.9807899999999563
 20
65.1248999999999967
  0
ARC
  5
20B
100
AcDbEntity
  8
0
 62
256
370
-1
 48
1.0
  6
BYLAYER
100
AcDbCircle
 10
250.4796948586040344
 20
65.125995141395947
 30
0.0
 40
0.4989060605699272
100
AcDbArc
 50
89.8742307714706214
 51
180.1257692285327039
  0
LWPOLYLINE
  5
20C
100
AcDbEntity
  8
0
 62
256
370
-1
 48
1.0
  6
BYLAYER
100
AcDbPolyline
 90
2
 70
128
 10
227.4807899999999563
 20
65.6248999999999967
 10
229.4807899999999563
 20
65.6248999999999967
  0
ARC
  5
20D
100
AcDbEntity
  8
0
 62
256
370
-1
 48
1.0
  6
BYLAYER
100
AcDbCircle
 10
229.4818851413958782
 20
65.1259951413959186
 30
0.0
 40
0.4989060605699556
100
AcDbArc
 50
359.8742307714701951
 51
90.1257692285293786
  0
LWPOLYLINE
  5
20E
100
AcDbEntity
  8
0
 62
256
370
-1
 48
1.0
  6
BYLAYER
100
AcDbPolyline
 90
2
 70
128
 10
229.9807899999999563
 20
65.1248999999999967
 10
229.9807899999999563
 20
52.1248999999999967
  0
ARC
  5
20F
100
AcDbEntity
  8
0
 62
256
370
-1
 48
1.0
  6
BYLAYER
100
AcDbCircle
 10
229.4818851413958782
 20
52.1238048586040748
 30
0.0
 40
0.4989060605699556
100
AcDbArc
 50
269.874230771470593
 51
0.1257692285297907
  0
LWPOLYLINE
  5
210
100
AcDbEntity
  8
0
 62
256
370
-1
 48
1.0
  6
BYLAYER
100
AcDbPolyline
 90
2
 70
128
 10
229.4807899999999563
 20
51.6248999999999967
 10
227.4807899999999563
 20
51.6248999999999967
  0
ARC
  5
211
100
AcDbEntity
  8
0
 62
256
370
-1
 48
1.0
  6
BYLAYER
100
AcDbCircle
 10
227.479694858604006
 20
52.1238048586040534
 30
0.0
 40
0.4989060605699272
100
AcDbArc
 50
179.8742307714702235
 51
270.125769228532647
  0
LWPOLYLINE
  5
212
100
AcDbEntity
  8
0
 62
256
370
-1
 48
1.0
  6
BYLAYER
100
AcDbPolyline
 90
2
 70
128
 10
226.9807899999999563
 20
52.1248999999999967
 10
226.9807899999999563
 20
65.1248999999999967
  0
ARC
  5
213
100
AcDbEntity
  8
0
 62
256
370
-1
 48
1.0
  6
BYLAYER
100
AcDbCircle
 10
227.4796948586040344
 20
65.1259951413959186
 30
0.0
 40
0.4989060605699556
100
AcDbArc
 50
89.8742307714706357
 51
180.1257692285297765
  0
LWPOLYLINE
  5
214
100
AcDbEntity
  8
0
 62
256
370
-1
 48
1.0
  6
BYLAYER
100
AcDbPolyline
 90
2
 70
128
 10
252.8620199999999727
 20
27.5249699999999962
 10
254.8620199999999727
 20
27.5249699999999962
  0
ARC
  5
215
100
AcDbEntity
  8
0
 62
256
370
-1
 48
1.0
  6
BYLAYER
100
AcDbCircle
 10
254.8631151413959515
 20
27.0260651413959039
 30
0.0
 40
0.4989060605698703
100
AcDbArc
 50
359.8742307714730941
 51
90.1257692285391698
  0
LWPOLYLINE
  5
216
100
AcDbEntity
  8
0
 62
256
370
-1
 48
1.0
  6
BYLAYER
100
AcDbPolyline
 90
2
 70
128
 10
255.3620199999999727
 20
27.0249699999999962
 10
255.3620199999999727
 20
14.0249699999999962
  0
ARC
  5
217
100
AcDbEntity
  8
0
 62
256
370
-1
 48
1.0
  6
BYLAYER
100
AcDbCircle
 10
254.8631151413959515
 20
14.02387485860406
 30
0.0
 40
0.4989060605699415
100
AcDbArc
 50
269.874230771464056
 51
0.1257692285297907
  0
LWPOLYLINE
  5
218
100
AcDbEntity
  8
0
 62
256
370
-1
 48
1.0
  6
BYLAYER
100
AcDbPolyline
 90
2
 70
128
 10
254.8620199999999727
 20
13.5249699999999962
 10
252.8620199999999727
 20
13.5249699999999962
  0
ARC
  5
219
100
AcDbEntity
  8
0
 62
256
370
-1
 48
1.0
  6
BYLAYER
100
AcDbCircle
 10
252.8609248586041076
 20
14.0238748586041027
 30
0.0
 40
0.4989060605700124
100
AcDbArc
 50
179.8742307714760216
 51
270.1257692285228131
  0
LWPOLYLINE
  5
21A
100
AcDbEntity
  8
0
 62
256
370
-1
 48
1.0
  6
BYLAYER
100
AcDbPolyline
 90
2
 70
128
 10
252.3620199999999727
 20
14.0249699999999962
 10
252.3620199999999727
 20
27.0249699999999962
  0
ARC
  5
21B
100
AcDbEntity
  8
0
 62
256
370
-1
 48
1.0
  6
BYLAYER
100
AcDbCircle
 10
252.8609248586041076
 20
27.0260651413959039
 30
0.0
 40
0.4989060605699697
100
AcDbArc
 50
89.8742307714771727
 51
180.1257692285269059
  0
LWPOLYLINE
  5
21C
100
AcDbEntity
  8
0
 62
256
370
-1
 48
1.0
  6
BYLAYER
100
AcDbPolyline
 90
2
 70
128
 10
229.8620199999999727
 20
20.5149600000000021
 10
231.8620199999999727
 20
20.5149600000000021
  0
ARC
  5
21D
100
AcDbEntity
  8
0
 62
256
370
-1
 48
1.0
  6
BYLAYER
100
AcDbCircle
 10
231.8631151413959515
 20
20.0160551413959524
 30
0.0
 40
0.4989060605698988
100
AcDbArc
 50
359.8742307714672961
 51
90.1257692285359013
  0
LWPOLYLINE
  5
21E
100
AcDbEntity
  8
0
 62
256
370
-1
 48
1.0
  6
BYLAYER
100
AcDbPolyline
 90
2
 70
128
 10
232.3620199999999727
 20
20.0149600000000021
 10
232.3620199999999727
 20
14.0249699999999962
  0
ARC
  5
21F
100
AcDbEntity
  8
0
 62
256
370
-1
 48
1.0
  6
BYLAYER
100
AcDbCircle
 10
231.8631151413959515
 20
14.0238748586040458
 30
0.0
 40
0.4989060605699273
100
AcDbArc
 50
269.874230771464056
 51
0.1257692285326887
  0
LWPOLYLINE
  5
220
100
AcDbEntity
  8
0
 62
256
370
-1
 48
1.0
  6
BYLAYER
100
AcDbPolyline
 90
2
 70
128
 10
231.8620199999999727
 20
13.5249699999999962
 10
229.8620199999999727
 20
13.5249699999999962
  0
ARC
  5
221
100
AcDbEntity
  8
0
 62
256
370
-1
 48
1.0
  6
BYLAYER
100
AcDbCircle
 10
229.8609248586041076
 20
14.0238748586040458
 30
0.0
 40
0.4989060605700125
100
AcDbArc
 50
179.8742307714702235
 51
270.1257692285228131
  0
LWPOLYLINE
  5
222
100
AcDbEntity
  8
0
 62
256
370
-1
 48
1.0
  6
BYLAYER
100
AcDbPolyline
 90
2
 70
128
 10
229.3620199999999727
 20
14.0249699999999962
 10
229.3620199999999727
 20
20.0149600000000021
  0
ARC
  5
223
100
AcDbEntity
  8
0
 62
256
370
-1
 48
1.0
  6
BYLAYER
100
AcDbCircle
 10
229.8609248586040792
 20
20.016055141395924
 30
0.0
 40
0.4989060605699555
100
AcDbArc
 50
89.8742307714739184
 51
180.1257692285269059
  0
LWPOLYLINE
  5
224
100
AcDbEntity
  8
0
 62
256
370
-1
 48
1.0
  6
BYLAYER
100
AcDbPolyline
 90
2
 70
128
 10
33.7874899999999343
 20
20.5149600000000021
 10
35.7874899999999343
 20
20.5149600000000021
  0
ARC
  5
225
100
AcDbEntity
  8
0
 62
256
370
-1
 48
1.0
  6
BYLAYER
100
AcDbCircle
 10
35.788585141395842
 20
20.0160551413959098
 30
0.0
 40
0.4989060605699698
100
AcDbArc
 50
359.8742307714730941
 51
90.1257692285277301
  0
LWPOLYLINE
  5
226
100
AcDbEntity
  8
0
 62
256
370
-1
 48
1.0
  6
BYLAYER
100
AcDbPolyline
 90
2
 70
128
 10
36.2874899999999343
 20
20.0149600000000021
 10
36.2874899999999343
 20
14.0249699999999962
  0
ARC
  5
227
100
AcDbEntity
  8
0
 62
256
370
-1
 48
1.0
  6
BYLAYER
100
AcDbCircle
 10
35.7885851413958562
 20
14.0238748586040742
 30
0.0
 40
0.4989060605699556
100
AcDbArc
 50
269.8742307714714457
 51
0.1257692285297907
  0
LWPOLYLINE
  5
228
100
AcDbEntity
  8
0
 62
256
370
-1
 48
1.0
  6
BYLAYER
100
AcDbPolyline
 90
2
 70
128
 10
35.7874899999999343
 20
13.5249699999999962
 10
33.7874899999999343
 20
13.5249699999999962
  0
ARC
  5
229
100
AcDbEntity
  8
0
 62
256
370
-1
 48
1.0
  6
BYLAYER
100
AcDbCircle
 10
33.7863948586040408
 20
14.0238748586040742
 30
0.0
 40
0.4989060605699769
100
AcDbArc
 50
179.8742307714702235
 51
270.1257692285269059
  0
LWPOLYLINE
  5
22A
100
AcDbEntity
  8
0
 62
256
370
-1
 48
1.0
  6
BYLAYER
100
AcDbPolyline
 90
2
 70
128
 10
33.2874899999999343
 20
14.0249699999999962
 10
33.2874899999999343
 20
20.0149600000000021
  0
ARC
  5
22B
100
AcDbEntity
  8
0
 62
256
370
-1
 48
1.0
  6
BYLAYER
100
AcDbCircle
 10
33.7863948586040266
 20
20.0160551413959098
 30
0.0
 40
0.4989060605699698
100
AcDbArc
 50
89.8742307714722841
 51
180.1257692285269059
  0
LWPOLYLINE
  5
22C
100
AcDbEntity
  8
0
 62
256
370
-1
 48
1.0
  6
BYLAYER
100
AcDbPolyline
 90
2
 70
128
 10
10.7874899999999343
 20
27.5249699999999962
 10
12.7874899999999343
 20
27.5249699999999962
  0
ARC
  5
22D
100
AcDbEntity
  8
0
 62
256
370
-1
 48
1.0
  6
BYLAYER
100
AcDbCircle
 10
12.788585141395842
 20
27.0260651413959181
 30
0.0
 40
0.4989060605699681
100
AcDbArc
 50
359.8742307714701951
 51
90.125769228527929
  0
LWPOLYLINE
  5
22E
100
AcDbEntity
  8
0
 62
256
370
-1
 48
1.0
  6
BYLAYER
100
AcDbPolyline
 90
2
 70
128
 10
13.2874899999999343
 20
27.0249699999999962
 10
13.2874899999999343
 20
14.0249699999999962
  0
ARC
  5
22F
100
AcDbEntity
  8
0
 62
256
370
-1
 48
1.0
  6
BYLAYER
100
AcDbCircle
 10
12.7885851413958562
 20
14.02387485860406
 30
0.0
 40
0.4989060605699414
100
AcDbArc
 50
269.8742307714714457
 51
0.1257692285297907
  0
LWPOLYLINE
  5
230
100
AcDbEntity
  8
0
 62
256
370
-1
 48
1.0
  6
BYLAYER
100
AcDbPolyline
 90
2
 70
128
 10
12.7874899999999343
 20
13.5249699999999962
 10
10.7874899999999343
 20
13.5249699999999962
  0
ARC
  5
231
100
AcDbEntity
  8
0
 62
256
370
-1
 48
1.0
  6
BYLAYER
100
AcDbCircle
 10
10.7863948586040266
 20
14.0238748586040742
 30
0.0
 40
0.4989060605699645
100
AcDbArc
 50
179.8742307714702235
 51
270.1257692285283269
  0
LWPOLYLINE
  5
232
100
AcDbEntity
  8
0
 62
256
370
-1
 48
1.0
  6
BYLAYER
100
AcDbPolyline
 90
2
 70
128
 10
10.2874899999999343
 20
14.0249699999999962
 10
10.2874899999999343
 20
27.0249699999999962
  0
ARC
  5
233
100
AcDbEntity
  8
0
 62
256
370
-1
 48
1.0
  6
BYLAYER
100
AcDbCircle
 10
10.7863948586040266
 20
27.0260651413959039
 30
0.0
 40
0.4989060605699698
100
AcDbArc
 50
89.8742307714716588
 51
180.1257692285269059
  0
LWPOLYLINE
  5
234
100
AcDbEntity
  8
0
 62
256
370
-1
 48
1.0
  6
BYLAYER
100
AcDbPolyline
 90
5
 70
128
 10
35.7674899999999525
 20
23.0649699999999598
 42
-0.414213562373095
 10
34.717489999999998
 20
22.0149700000000053
 42
-0.4142135623730989
 10
33.667490000000015
 20
23.064969999999974
 42
-0.414213562373091
 10
34.717489999999998
 20
24.1149699999999712
 42
-0.414213562373099
 10
35.7674899999999809
 20
23.0649700000000024
  0
LWPOLYLINE
  5
235
100
AcDbEntity
  8
0
 62
256
370
-1
 48
1.0
  6
BYLAYER
100
AcDbPolyline
 90
5
 70
128
 10
230.7755399999999781
 20
23.0649699999999882
 42
-0.414213562373095
 10
229.7255399999999668
 20
22.0149699999999768
 42
-0.4142135623731109
 10
228.6755399999998986
 20
23.0649699999999882
 42
-0.414213562373103
 10
229.7255399999999668
 20
24.1149699999999996
 42
-0.4142135623731109
 10
230.775540000000035
 20
23.0649699999999882
  0
LWPOLYLINE
  5
236
100
AcDbEntity
  8
0
 62
256
370
-1
 48
1.0
  6
BYLAYER
100
AcDbPolyline
 90
5
 70
128
 10
195.5013699999999517
 20
38.1779400000000066
 42
-0.414213562373095
 10
194.4513699999999403
 20
37.1279399999999953
 42
-0.4142135623731109
 10
193.4013699999998721
 20
38.1779400000000066
 42
-0.414213562373103
 10
194.4513699999999403
 20
39.227940000000018
 42
-0.4142135623731109
 10
195.5013700000000085
 20
38.1779400000000066
  0
LWPOLYLINE
  5
237
100
AcDbEntity
  8
0
 62
256
370
-1
 48
1.0
  6
BYLAYER
100
AcDbPolyline
 90
5
 70
128
 10
82.2494799999999486
 20
30.0498399999999606
 42
-0.414213562373095
 10
81.1994799999999941
 20
28.9998400000000061
 42
-0.4142135623730989
 10
80.1494800000000112
 20
30.0498399999999748
 42
-0.414213562373091
 10
81.1994799999999941
 20
31.099839999999972
 42
-0.414213562373099
 10
82.2494799999999771
 20
30.0498400000000032
  0
LWPOLYLINE
  5
238
100
AcDbEntity
  8
0
 62
256
370
-1
 48
1.0
  6
BYLAYER
100
AcDbPolyline
 90
5
 70
128
 10
245.6980299999999602
 20
68.1497700000000179
 42
-0.414213562373095
 10
244.6480299999999488
 20
67.0997700000000066
 42
-0.414213562373095
 10
243.5980299999999374
 20
68.1497700000000179
 42
-0.4142135623732219
 10
244.6480300000004036
 20
69.1997700000000151
 42
-0.414213562373095
 10
245.6980299999999602
 20
68.1497699999999895
  0
LWPOLYLINE
  5
239
100
AcDbEntity
  8
0
 62
256
370
-1
 48
1.0
  6
BYLAYER
100
AcDbPolyline
 90
5
 70
128
 10
181.4996299999999678
 20
68.1497700000000179
 42
-0.414213562373095
 10
180.4496299999999565
 20
67.0997700000000066
 42
-0.414213562373095
 10
179.3996299999999451
 20
68.1497700000000179
 42
-0.4142135623732219
 10
180.4496300000004112
 20
69.1997700000000151
 42
-0.414213562373095
 10
181.4996299999999678
 20
68.1497699999999895
  0
LWPOLYLINE
  5
23A
100
AcDbEntity
  8
0
 62
256
370
-1
 48
1.0
  6
BYLAYER
100
AcDbPolyline
 90
5
 70
128
 10
129.1122399999999288
 20
49.0997999999999877
 42
-0.4142135623730792
 10
128.0622399999999743
 20
48.0497999999999763
 42
-0.414213562373095
 10
127.0122399999999629
 20
49.0997999999999877
 42
-0.4142135623730871
 10
128.0622399999999743
 20
50.149799999999999
 42
-0.414213562373095
 10
129.1122399999999857
 20
49.0997999999999877
  0
LWPOLYLINE
  5
23B
100
AcDbEntity
  8
0
 62
256
370
-1
 48
1.0
  6
BYLAYER
100
AcDbPolyline
 90
5
 70
128
 10
14.1139799999999696
 20
68.1497699999999895
 42
-0.414213562373095
 10
13.063980000000015
 20
67.099770000000035
 42
-0.4142135623730989
 10
12.0139800000000321
 20
68.1497700000000037
 42
-0.414213562373095
 10
13.063980000000015
 20
69.1997699999999725
 42
-0.414213562373099
 10
14.113979999999998
 20
68.1497700000000037
  0
LWPOLYLINE
  5
23C
100
AcDbEntity
  8
0
 62
256
370
-1
 48
1.0
  6
BYLAYER
100
AcDbPolyline
 90
5
 70
128
 10
67.2316599999999198
 20
76.3412499999999739
 42
-0.414213562373095
 10
66.1816599999999653
 20
75.2912500000000193
 42
-0.4142135623730989
 10
65.1316599999999823
 20
76.3412499999999881
 42
-0.414213562373091
 10
66.1816599999999653
 20
77.3912499999999852
 42
-0.414213562373099
 10
67.2316599999999482
 20
76.3412500000000165
  0
ENDSEC
  0
SECTION
  2
OBJECTS
  0
DICTIONARY
  5
C
100
AcDbDictionary
280
0
281
1
  3
ACAD_GROUP
350
D
  3
ACAD_LAYOUT
350
1A
  3
ACAD_MLINESTYLE
350
17
  3
ACAD_PLOTSETTINGS
350
19
  3
ACAD_PLOTSTYLENAME
350
E
  3
AcDbVariableDictionary
350
23D
  3
QCAD_OBJECTS
350
23E
  0
DICTIONARY
  5
D
100
AcDbDictionary
280
0
281
1
  0
ACDBDICTIONARYWDFLT
  5
E
100
AcDbDictionary
281
1
  3
Normal
350
F
100
AcDbDictionaryWithDefault
340
F
  0
ACDBPLACEHOLDER
  5
F
  0
DICTIONARY
  5
17
100
AcDbDictionary
280
0
281
1
  3
Standard
350
18
  0
MLINESTYLE
  5
18
100
AcDbMlineStyle
  2
STANDARD
 70
0
  3

 62
256
 51
90.0
 52
90.0
 71
2
 49
0.5
 62
256
  6
BYLAYER
 49
-0.5
 62
256
  6
BYLAYER
  0
DICTIONARY
  5
19
100
AcDbDictionary
280
0
281
1
  0
DICTIONARY
  5
1A
100
AcDbDictionary
281
1
  3
Layout1
350
1E
  3
Layout2
350
26
  3
Model
350
22
  0
LAYOUT
  5
1E
100
AcDbPlotSettings
  1

  2
none_device
  4

  6

 40
0.0
 41
0.0
 42
0.0
 43
0.0
 44
0.0
 45
0.0
 46
0.0
 47
0.0
 48
0.0
 49
0.0
140
0.0
141
0.0
142
1.0
143
1.0
 70
688
 72
0
 73
0
 74
5
  7

 75
16
147
1.0
148
0.0
149
0.0
100
AcDbLayout
  1
Layout1
 70
1
 71
1
 10
0.0
 20
0.0
 11
420.0
 21
297.0
 12
0.0
 22
0.0
 32
0.0
 14
100000000000000000000.0
 24
100000000000000000000.0
 34
100000000000000000000.0
 15
-100000000000000000000.0
 25
-100000000000000000000.0
 35
-100000000000000000000.0
146
0.0
 13
0.0
 23
0.0
 33
0.0
 16
1.0
 26
0.0
 36
0.0
 17
0.0
 27
1.0
 37
0.0
 76
0
330
1B
  0
LAYOUT
  5
22
100
AcDbPlotSettings
  1

  2
none_device
  4

  6

 40
0.0
 41
0.0
 42
0.0
 43
0.0
 44
0.0
 45
0.0
 46
0.0
 47
0.0
 48
0.0
 49
0.0
140
0.0
141
0.0
142
1.0
143
1.0
 70
1712
 72
0
 73
0
 74
0
  7

 75
0
147
1.0
148
0.0
149
0.0
100
AcDbLayout
  1
Model
 70
1
 71
0
 10
0.0
 20
0.0
 11
12.0
 21
9.0
 12
0.0
 22
0.0
 32
0.0
 14
0.0
 24
0.0
 34
0.0
 15
0.0
 25
0.0
 35
0.0
146
0.0
 13
0.0
 23
0.0
 33
0.0
 16
1.0
 26
0.0
 36
0.0
 17
0.0
 27
1.0
 37
0.0
 76
0
330
1F
  0
LAYOUT
  5
26
100
AcDbPlotSettings
  1

  2
none_device
  4

  6

 40
0.0
 41
0.0
 42
0.0
 43
0.0
 44
0.0
 45
0.0
 46
0.0
 47
0.0
 48
0.0
 49
0.0
140
0.0
141
0.0
142
1.0
143
1.0
 70
688
 72
0
 73
0
 74
5
  7

 75
16
147
1.0
148
0.0
149
0.0
100
AcDbLayout
  1
Layout2
 70
1
 71
2
 10
0.0
 20
0.0
 11
12.0
 21
9.0
 12
0.0
 22
0.0
 32
0.0
 14
0.0
 24
0.0
 34
0.0
 15
0.0
 25
0.0
 35
0.0
146
0.0
 13
0.0
 23
0.0
 33
0.0
 16
1.0
 26
0.0
 36
0.0
 17
0.0
 27
1.0
 37
0.0
 76
0
330
23
  0
DICTIONARY
  5
23D
100
AcDbDictionary
281
1
  3
DIMASSOC
350
240
  3
HIDETEXT
350
23F
  0
DICTIONARYVAR
  5
23F
100
DictionaryVariables
280
0
  1
2
  0
DICTIONARYVAR
  5
240
100
DictionaryVariables
280
0
  1
1
  0
DICTIONARY
  5
23E
100
AcDbDictionary
281
1
  3
ColorSettings/BackgroundColor
350
241
  3
ColorSettings/ColorMode
350
242
  3
Grid/DisplayGrid00
350
243
  3
Grid/DisplayGrid01
350
244
  3
Grid/DisplayGrid02
350
245
  3
Grid/DisplayGrid03
350
246
  3
Grid/GridSpacingX00
350
247
  3
Grid/GridSpacingX01
350
248
  3
Grid/GridSpacingX02
350
249
  3
Grid/GridSpacingX03
350
24A
  3
Grid/GridSpacingY00
350
24B
  3
Grid/GridSpacingY01
350
24C
  3
Grid/GridSpacingY02
350
24D
  3
Grid/GridSpacingY03
350
24E
  3
Grid/IsometricGrid00
350
24F
  3
Grid/IsometricGrid01
350
250
  3
Grid/IsometricGrid02
350
251
  3
Grid/IsometricGrid03
350
252
  3
Grid/IsometricProjection00
350
253
  3
Grid/IsometricProjection01
350
254
  3
Grid/IsometricProjection02
350
255
  3
Grid/IsometricProjection03
350
256
  3
Grid/MetaGridSpacingX00
350
257
  3
Grid/MetaGridSpacingX01
350
258
  3
Grid/MetaGridSpacingX02
350
259
  3
Grid/MetaGridSpacingX03
350
25A
  3
Grid/MetaGridSpacingY00
350
25B
  3
Grid/MetaGridSpacingY01
350
25C
  3
Grid/MetaGridSpacingY02
350
25D
  3
Grid/MetaGridSpacingY03
350
25E
  3
MultiPageSettings/Columns
350
25F
  3
MultiPageSettings/GlueMarginsBottom
350
260
  3
MultiPageSettings/GlueMarginsLeft
350
261
  3
MultiPageSettings/GlueMarginsRight
350
262
  3
MultiPageSettings/GlueMarginsTop
350
263
  3
MultiPageSettings/PrintCropMarks
350
264
  3
MultiPageSettings/Rows
350
265
  3
PageSettings/OffsetX
350
266
  3
PageSettings/OffsetY
350
267
  3
PageSettings/PageOrientation
350
268
  3
PageSettings/PaperHeight
350
269
  3
PageSettings/PaperWidth
350
26A
  3
PageSettings/Scale
350
26B
  3
PageSettings/ShowPaperBorders
350
26C
  3
PageTagSettings/EnablePageTags
350
26D
  3
PageTagSettings/TagAlignment
350
26E
  3
PageTagSettings/TagFont
350
26F
  3
PageTagSettings/TagPosition
350
270
  3
UnitSettings/PaperUnit
350
271
  3
ViewportCenter
350
272
  3
ViewportHeight
350
273
  3
ViewportWidth
350
274
  0
XRECORD
  5
241
330
23E
100
AcDbXrecord
280
1
1000
White
  0
XRECORD
  5
242
330
23E
100
AcDbXrecord
280
1
1000
FullColor
  0
XRECORD
  5
243
330
23E
100
AcDbXrecord
280
1
290
1
  0
XRECORD
  5
244
330
23E
100
AcDbXrecord
280
1
290
1
  0
XRECORD
  5
245
330
23E
100
AcDbXrecord
280
1
290
1
  0
XRECORD
  5
246
330
23E
100
AcDbXrecord
280
1
290
1
  0
XRECORD
  5
247
330
23E
100
AcDbXrecord
280
1
1000
auto
  0
XRECORD
  5
248
330
23E
100
AcDbXrecord
280
1
1000
auto
  0
XRECORD
  5
249
330
23E
100
AcDbXrecord
280
1
1000
auto
  0
XRECORD
  5
24A
330
23E
100
AcDbXrecord
280
1
1000
auto
  0
XRECORD
  5
24B
330
23E
100
AcDbXrecord
280
1
1000
auto
  0
XRECORD
  5
24C
330
23E
100
AcDbXrecord
280
1
1000
auto
  0
XRECORD
  5
24D
330
23E
100
AcDbXrecord
280
1
1000
auto
  0
XRECORD
  5
24E
330
23E
100
AcDbXrecord
280
1
1000
auto
  0
XRECORD
  5
24F
330
23E
100
AcDbXrecord
280
1
290
0
  0
XRECORD
  5
250
330
23E
100
AcDbXrecord
280
1
290
0
  0
XRECORD
  5
251
330
23E
100
AcDbXrecord
280
1
290
0
  0
XRECORD
  5
252
330
23E
100
AcDbXrecord
280
1
290
0
  0
XRECORD
  5
253
330
23E
100
AcDbXrecord
280
1
 90
65537
  0
XRECORD
  5
254
330
23E
100
AcDbXrecord
280
1
 90
65537
  0
XRECORD
  5
255
330
23E
100
AcDbXrecord
280
1
 90
65537
  0
XRECORD
  5
256
330
23E
100
AcDbXrecord
280
1
 90
65537
  0
XRECORD
  5
257
330
23E
100
AcDbXrecord
280
1
1000
auto
  0
XRECORD
  5
258
330
23E
100
AcDbXrecord
280
1
1000
auto
  0
XRECORD
  5
259
330
23E
100
AcDbXrecord
280
1
1000
auto
  0
XRECORD
  5
25A
330
23E
100
AcDbXrecord
280
1
1000
auto
  0
XRECORD
  5
25B
330
23E
100
AcDbXrecord
280
1
1000
auto
  0
XRECORD
  5
25C
330
23E
100
AcDbXrecord
280
1
1000
auto
  0
XRECORD
  5
25D
330
23E
100
AcDbXrecord
280
1
1000
auto
  0
XRECORD
  5
25E
330
23E
100
AcDbXrecord
280
1
1000
auto
  0
XRECORD
  5
25F
330
23E
100
AcDbXrecord
280
1
 90
1
  0
XRECORD
  5
260
330
23E
100
AcDbXrecord
280
1
 40
10.0
  0
XRECORD
  5
261
330
23E
100
AcDbXrecord
280
1
 40
10.0
  0
XRECORD
  5
262
330
23E
100
AcDbXrecord
280
1
 40
10.0
  0
XRECORD
  5
263
330
23E
100
AcDbXrecord
280
1
 40
10.0
  0
XRECORD
  5
264
330
23E
100
AcDbXrecord
280
1
290
0
  0
XRECORD
  5
265
330
23E
100
AcDbXrecord
280
1
 90
1
  0
XRECORD
  5
266
330
23E
100
AcDbXrecord
280
1
 40
0.0
  0
XRECORD
  5
267
330
23E
100
AcDbXrecord
280
1
 40
0.0
  0
XRECORD
  5
268
330
23E
100
AcDbXrecord
280
1
1000
Portrait
  0
XRECORD
  5
269
330
23E
100
AcDbXrecord
280
1
 40
27.9400000000000013
  0
XRECORD
  5
26A
330
23E
100
AcDbXrecord
280
1
 40
21.5899999999999999
  0
XRECORD
  5
26B
330
23E
100
AcDbXrecord
280
1
1000
1:1
  0
XRECORD
  5
26C
330
23E
100
AcDbXrecord
280
1
290
1
  0
XRECORD
  5
26D
330
23E
100
AcDbXrecord
280
1
290
0
  0
XRECORD
  5
26E
330
23E
100
AcDbXrecord
280
1
1000
Inside
  0
XRECORD
  5
26F
330
23E
100
AcDbXrecord
280
1
1000
Arial,10,-1,5,50,0,0,0,0,0
  0
XRECORD
  5
270
330
23E
100
AcDbXrecord
280
1
1000
TopLeft
  0
XRECORD
  5
271
330
23E
100
AcDbXrecord
280
1
 90
5
  0
XRECORD
  5
273
330
23E
100
AcDbXrecord
280
1
 40
421.0380767231997083
  0
XRECORD
  5
274
330
23E
100
AcDbXrecord
280
1
 40
573.9739663564796501
  0
ENDSEC
  0
EOF
